<svg width="26" height="27" viewBox="0 0 26 27" fill="none" xmlns="http://www.w3.org/2000/svg">
<rect opacity="0.25" y="0.5" width="26" height="26" rx="13" fill="#F6D5A7"/>
<path d="M23.2137 13.2064C22.5352 11.4705 21.5038 9.89442 20.1847 8.57773C18.8686 7.258 17.2923 6.22648 15.5561 5.54872C15.4713 5.51443 15.3803 5.49791 15.2889 5.50021C15.1974 5.50251 15.1074 5.52357 15.0244 5.56208C14.9415 5.60059 14.8673 5.65574 14.8065 5.7241C14.7457 5.79246 14.6996 5.87258 14.6711 5.95949L14.1434 7.55581C14.1296 7.59745 14.1327 7.64287 14.152 7.68224C14.1714 7.72161 14.2055 7.75178 14.247 7.76621C15.8085 8.30849 17.2267 9.19799 18.3947 10.3677C19.5715 11.5352 20.4679 12.9546 21.0163 14.5188C21.0307 14.5595 21.0604 14.593 21.099 14.6123C21.1376 14.6316 21.1821 14.6352 21.2233 14.6224L22.8197 14.088C22.9047 14.0577 22.9827 14.0105 23.0489 13.9492C23.1152 13.8879 23.1683 13.8139 23.2052 13.7315C23.242 13.6491 23.2617 13.56 23.2632 13.4698C23.2647 13.3796 23.2479 13.2899 23.2137 13.2064Z" fill="#969EBB"/>
<path d="M20.2048 14.7759C19.7037 13.3382 18.8827 12.033 17.8036 10.9588C16.7325 9.88412 15.4337 9.06356 14.0032 8.55764C13.9607 8.54383 13.9144 8.5473 13.8744 8.5673C13.8345 8.58729 13.8039 8.6222 13.7895 8.6645L11.0343 16.8866C10.9951 17.0042 10.9894 17.1305 11.0179 17.2513C11.0464 17.372 11.1079 17.4824 11.1956 17.5702C11.2833 17.6579 11.3938 17.7194 11.5145 17.7479C11.6352 17.7764 11.7615 17.7707 11.8792 17.7315L20.0979 14.9897C20.1402 14.9752 20.1751 14.9447 20.1951 14.9047C20.2151 14.8647 20.2186 14.8185 20.2048 14.7759ZM13.5857 16.2287C13.4923 16.322 13.3733 16.3855 13.2438 16.4112C13.1142 16.437 12.98 16.4237 12.8579 16.3731C12.7359 16.3225 12.6317 16.2369 12.5583 16.1271C12.485 16.0173 12.4458 15.8882 12.4458 15.7561C12.4458 15.624 12.485 15.4949 12.5583 15.3851C12.6317 15.2753 12.7359 15.1897 12.8579 15.1391C12.98 15.0885 13.1142 15.0753 13.2438 15.101C13.3733 15.1267 13.4923 15.1902 13.5857 15.2836C13.6478 15.3456 13.6971 15.4193 13.7307 15.5003C13.7643 15.5814 13.7816 15.6683 13.7816 15.7561C13.7816 15.8439 13.7643 15.9308 13.7307 16.0119C13.6971 16.093 13.6478 16.1666 13.5857 16.2287ZM14.0032 13.6906C14.0611 13.7489 14.1004 13.8231 14.1163 13.9037C14.1322 13.9844 14.1239 14.0679 14.0925 14.1439C14.0612 14.2198 14.0081 14.2848 13.9399 14.3307C13.8717 14.3766 13.7915 14.4014 13.7093 14.4019C13.5984 14.4019 13.4918 14.3588 13.4121 14.2817C13.1782 14.0459 13.0469 13.7272 13.0469 13.395C13.0469 13.0629 13.1782 12.7442 13.4121 12.5084C13.4921 12.4323 13.5986 12.3905 13.709 12.3918C13.8194 12.393 13.9249 12.4372 14.0032 12.515C14.0421 12.5538 14.0729 12.5999 14.094 12.6506C14.115 12.7013 14.1258 12.7557 14.1258 12.8106C14.1258 12.8655 14.115 12.9199 14.094 12.9706C14.0729 13.0213 14.0421 13.0674 14.0032 13.1062C13.9267 13.1842 13.8839 13.2891 13.8839 13.3984C13.8839 13.5076 13.9267 13.6125 14.0032 13.6906ZM14.5342 10.5614C14.6743 10.4211 14.8528 10.3256 15.0471 10.2868C15.2415 10.2481 15.443 10.2679 15.6262 10.3436C15.8093 10.4194 15.9659 10.5479 16.076 10.7126C16.1861 10.8774 16.2449 11.0712 16.2449 11.2694C16.2449 11.4676 16.1861 11.6613 16.076 11.8261C15.9659 11.9909 15.8093 12.1193 15.6262 12.1951C15.443 12.2709 15.2415 12.2907 15.0471 12.2519C14.8528 12.2132 14.6743 12.1176 14.5342 11.9774C14.3461 11.79 14.2401 11.5356 14.2395 11.2701C14.2389 11.0046 14.3437 10.7497 14.5308 10.5614H14.5342ZM16.5379 15.1667C16.4211 15.2832 16.2723 15.3625 16.1104 15.3946C15.9485 15.4266 15.7808 15.41 15.6283 15.3467C15.4759 15.2835 15.3456 15.1764 15.254 15.0392C15.1623 14.9019 15.1134 14.7406 15.1134 14.5756C15.1134 14.4105 15.1623 14.2492 15.254 14.1119C15.3456 13.9747 15.4759 13.8677 15.6283 13.8044C15.7808 13.7412 15.9485 13.7245 16.1104 13.7566C16.2723 13.7886 16.4211 13.8679 16.5379 13.9845C16.6161 14.0618 16.6781 14.1538 16.7205 14.2553C16.7628 14.3568 16.7846 14.4656 16.7846 14.5756C16.7846 14.6855 16.7628 14.7944 16.7205 14.8958C16.6781 14.9973 16.6161 15.0893 16.5379 15.1667ZM18.2077 14.0713C18.1529 14.0696 18.099 14.057 18.049 14.0345C17.999 14.0119 17.9539 13.9796 17.9164 13.9396C17.8789 13.8996 17.8496 13.8526 17.8302 13.8013C17.8109 13.75 17.8019 13.6953 17.8036 13.6405C17.8039 13.5302 17.7621 13.4239 17.6868 13.3433C17.6107 13.2635 17.5064 13.2167 17.3962 13.213C17.3413 13.2122 17.287 13.2004 17.2367 13.1783C17.1863 13.1563 17.1408 13.1245 17.1029 13.0847C17.065 13.0449 17.0354 12.9979 17.0158 12.9466C16.9962 12.8952 16.987 12.8405 16.9888 12.7856C16.9963 12.6765 17.0443 12.5742 17.1234 12.4988C17.2025 12.4234 17.307 12.3804 17.4163 12.3781C17.7487 12.3869 18.0641 12.5272 18.2933 12.7682C18.5225 13.0093 18.6466 13.3314 18.6385 13.6639C18.6368 13.7194 18.6241 13.7741 18.6011 13.8247C18.5782 13.8753 18.5454 13.9209 18.5047 13.9588C18.4641 13.9967 18.4163 14.0261 18.3641 14.0454C18.312 14.0647 18.2566 14.0735 18.2011 14.0713H18.2077Z" fill="#969EBB"/>
<path d="M5.45793 11.2399C5.3074 11.2196 5.15565 11.2095 5.00375 11.2099C3.90503 11.2099 3 11.7108 3 12.3286C3 12.9464 3.89167 13.4474 5.00375 13.4474C5.8687 13.4474 6.60341 13.1368 6.87392 12.7027C7.17888 12.2764 7.33178 11.7601 7.30807 11.2366C7.30807 10.2781 6.89396 9.5 6.383 9.5C5.87204 9.5 5.45793 10.2815 5.45793 11.2399Z" fill="#E8931E"/>
<path d="M7.29138 13.0466C6.32624 14.0084 6.1459 15.4344 7.19787 16.8704L8.86766 15.2006C8.92603 15.1428 9.00018 15.1034 9.08082 15.0875C9.16146 15.0716 9.24499 15.0799 9.32095 15.1113C9.39691 15.1426 9.46192 15.1958 9.50782 15.2639C9.55373 15.3321 9.57848 15.4123 9.57899 15.4945C9.579 15.6054 9.53589 15.712 9.45877 15.7917L7.72886 17.5183C8.4908 18.2157 9.31336 18.8438 10.1868 19.3951L11.6228 17.9558C11.702 17.8789 11.808 17.8358 11.9184 17.8358C12.0287 17.8358 12.1348 17.8789 12.2139 17.9558C12.2532 17.9947 12.2843 18.041 12.3055 18.092C12.3267 18.143 12.3376 18.1977 12.3375 18.253C12.3379 18.3078 12.3272 18.3621 12.3059 18.4126C12.2847 18.4632 12.2534 18.5088 12.2139 18.5469L10.9081 19.8527C12.7817 20.9915 14.8355 21.8998 15.4767 21.2586C16.3216 20.4137 14.4748 17.1376 12.9687 15.0303L11.6963 16.3027C11.6179 16.3811 11.5116 16.4251 11.4007 16.4251C11.2899 16.4251 11.1836 16.3811 11.1052 16.3027C11.0268 16.2243 10.9828 16.118 10.9828 16.0071C10.9828 15.8963 11.0268 15.79 11.1052 15.7116L12.4611 14.3557C12.235 14.0602 11.9919 13.7781 11.733 13.5108C10.1133 11.8644 8.39678 11.9312 7.29138 13.0466Z" fill="#E8931E"/>
</svg>
