<svg width="41" height="40" viewBox="0 0 41 40" fill="none" xmlns="http://www.w3.org/2000/svg">
<path fill-rule="evenodd" clip-rule="evenodd" d="M37.7862 12C37.7563 11.9683 37.7305 11.9284 37.6963 11.8947L28.8388 3.38518C28.3059 2.87161 27.4423 2.87161 26.9114 3.38518C26.3738 3.89784 26.3738 4.72868 26.9114 5.23608L30.6847 8.87089V11.1856H27.9555V13.8074H34.6221C36.6309 13.8074 38.2682 15.3752 38.2682 17.3117V33.8739C38.2682 34.4492 38.1205 34.9837 37.8625 35.466L14.6363 13.1527C14.1025 12.6407 13.2405 12.6407 12.706 13.1527C12.1713 13.6641 12.1713 14.4938 12.706 15.0057L35.7999 37.1885C35.428 37.31 35.0325 37.3787 34.6221 37.3787H17.3801C15.3688 37.3787 13.7289 35.8047 13.7289 33.8739V27.8021H12.3671H12.3653H11V29.1116V32.7945V32.7969V34.2945C11 34.4155 11.0227 34.5332 11.057 34.6513C11.0964 34.9394 11.1556 35.225 11.2404 35.5026L11.3458 36.7503L12.4039 37.7068C12.4082 37.7117 12.4171 37.717 12.4232 37.7248C13.5952 39.112 15.3796 40 17.3801 40H34.6221C36.2466 40 37.7271 39.4074 38.8556 38.4387C38.8877 38.4124 38.9241 38.391 38.9528 38.3622C38.9605 38.3544 38.9691 38.3416 38.9785 38.3285C40.2191 37.212 41 35.6295 41 33.8739V17.3117C41 15.0422 39.6994 13.0604 37.7862 12Z" fill="#FFB003"/>
<path fill-rule="evenodd" clip-rule="evenodd" d="M27.2706 10.2314H16.6946C15.3386 10.2314 14.086 10.6697 13.0526 11.4117L4.95283 3.09888C5.39441 2.90983 5.87552 2.79992 6.38115 2.79992H23.6223C25.6341 2.79992 27.2706 4.48119 27.2706 6.54361V10.2314ZM27.2706 24.235C27.2706 26.2992 25.6341 27.98 23.6223 27.98H13.0437V16.7746C13.0437 15.8347 13.389 14.9751 13.9454 14.3139L13.951 14.3117C13.951 14.3092 13.9548 14.3092 13.9548 14.3025C14.6271 13.5245 15.6004 13.0318 16.6946 13.0318H27.2706V24.235ZM10.3143 16.7746V27.98H6.38115C4.36888 27.98 2.73536 26.2992 2.73536 24.235V6.54361C2.73536 6.02666 2.83736 5.52913 3.02411 5.07935L11.1969 13.4678C10.6403 14.4353 10.3143 15.5653 10.3143 16.7746ZM23.6223 0H6.38115C4.74155 0 3.25336 0.643956 2.12022 1.69312C2.02762 1.74856 1.93466 1.81402 1.85075 1.89926C1.77064 1.98548 1.70423 2.07646 1.64888 2.17624C0.630961 3.33665 0 4.86625 0 6.54361V24.235C0 25.9182 0.630961 27.4473 1.64888 28.6086C1.7153 28.7185 1.78136 28.8174 1.87646 28.9074L10.7749 37.6582V37.6444C11.0174 37.8642 11.3305 38 11.6796 38C12.4324 38 13.0437 37.3781 13.0437 36.6032V30.7804H23.6223C27.1391 30.7804 30 27.8429 30 24.235V6.54361C30 2.93572 27.1391 0 23.6223 0Z" fill="#FF434F"/>
</svg>
