<svg width="26" height="27" viewBox="0 0 26 27" fill="none" xmlns="http://www.w3.org/2000/svg">
<rect opacity="0.25" y="0.5" width="26" height="26" rx="13" fill="#F6D5A7"/>
<path d="M21.2966 9.17677L17.5908 6.57448C17.5208 6.52562 17.4374 6.49972 17.352 6.50037H15.4126C15.3611 6.50113 15.3115 6.52086 15.2736 6.5558C15.2356 6.59073 15.2118 6.63842 15.2068 6.68977C15.1583 7.30824 14.8789 7.88582 14.4241 8.30775C13.9693 8.72967 13.3724 8.96506 12.7521 8.96714C12.1317 8.96921 11.5333 8.73782 11.0757 8.31895C10.6181 7.90007 10.3348 7.32437 10.2822 6.70624C10.2817 6.67794 10.2755 6.65004 10.2639 6.6242C10.2523 6.59837 10.2357 6.57514 10.2149 6.55591C10.1941 6.53668 10.1697 6.52185 10.143 6.5123C10.1164 6.50276 10.0881 6.4987 10.0598 6.50037H8.13283C8.04747 6.49972 7.96402 6.52562 7.89402 6.57448L4.17588 9.17677C4.09469 9.23351 4.03668 9.31761 4.01248 9.41366C3.98828 9.50971 3.99951 9.61126 4.04412 9.69969L5.69113 12.932C5.73902 13.0272 5.822 13.1002 5.9226 13.1355C6.02321 13.1709 6.13359 13.1658 6.23053 13.1214L7.17757 12.6767V20.0882C7.17757 20.1975 7.22095 20.3022 7.29817 20.3794C7.37538 20.4566 7.48012 20.5 7.58932 20.5H17.8832C17.9924 20.5 18.0971 20.4566 18.1743 20.3794C18.2515 20.3022 18.2949 20.1975 18.2949 20.0882V12.6767L19.2543 13.1214C19.3512 13.1658 19.4616 13.1709 19.5622 13.1355C19.6628 13.1002 19.7458 13.0272 19.7937 12.932L21.4407 9.69969C21.4841 9.60986 21.4934 9.50733 21.4669 9.41115C21.4404 9.31496 21.3799 9.23168 21.2966 9.17677ZM15.0009 13.2943L14.2639 14.0108C14.2226 14.0515 14.1917 14.1016 14.1738 14.1567C14.1558 14.2119 14.1514 14.2706 14.1609 14.3278L14.3338 15.3531C14.3451 15.4194 14.3377 15.4876 14.3124 15.5499C14.2871 15.6123 14.245 15.6664 14.1907 15.7061C14.1364 15.7459 14.0721 15.7697 14.0051 15.775C13.938 15.7803 13.8708 15.7668 13.8109 15.736L12.9051 15.2584C12.8527 15.232 12.7949 15.2182 12.7362 15.2182C12.6776 15.2182 12.6198 15.232 12.5674 15.2584L11.6616 15.736C11.6017 15.7668 11.5345 15.7803 11.4674 15.775C11.4004 15.7697 11.3361 15.7459 11.2818 15.7061C11.2275 15.6664 11.1854 15.6123 11.1601 15.5499C11.1348 15.4876 11.1274 15.4194 11.1386 15.3531L11.2951 14.3402C11.3046 14.2829 11.3002 14.2243 11.2823 14.1691C11.2643 14.1139 11.2334 14.0639 11.1922 14.0231L10.4716 13.2943C10.4234 13.2473 10.3892 13.1878 10.3729 13.1224C10.3566 13.0571 10.3588 12.9885 10.3794 12.9244C10.3999 12.8602 10.4379 12.8031 10.4891 12.7593C10.5403 12.7156 10.6027 12.6869 10.6692 12.6767L11.7069 12.5449C11.7649 12.5367 11.82 12.5144 11.8673 12.4799C11.9147 12.4455 11.9529 12.3999 11.9786 12.3473L12.4315 11.4291C12.4614 11.3682 12.5077 11.317 12.5652 11.2812C12.6227 11.2453 12.6891 11.2263 12.7568 11.2263C12.8246 11.2263 12.891 11.2453 12.9485 11.2812C13.006 11.317 13.0523 11.3682 13.0821 11.4291L13.535 12.3473C13.5607 12.3999 13.5989 12.4455 13.6463 12.4799C13.6937 12.5144 13.7488 12.5367 13.8068 12.5449L14.8197 12.689C14.8825 12.7031 14.9404 12.7337 14.9874 12.7776C15.0344 12.8214 15.069 12.877 15.0874 12.9387C15.1059 13.0003 15.1076 13.0657 15.0924 13.1282C15.0772 13.1907 15.0456 13.248 15.0009 13.2943Z" fill="#E8931E"/>
<path d="M13.7664 6.50037H11.7077C11.5984 6.50037 11.4937 6.54375 11.4165 6.62097C11.3393 6.69819 11.2959 6.80292 11.2959 6.91212C11.2959 7.02132 11.3393 7.12606 11.4165 7.20327C11.4937 7.28049 11.5984 7.32387 11.7077 7.32387H13.7664C13.8756 7.32387 13.9804 7.28049 14.0576 7.20327C14.1348 7.12606 14.1782 7.02132 14.1782 6.91212C14.1782 6.80292 14.1348 6.69819 14.0576 6.62097C13.9804 6.54375 13.8756 6.50037 13.7664 6.50037Z" fill="#969EBB"/>
</svg>
