<svg width="26" height="27" viewBox="0 0 26 27" fill="none" xmlns="http://www.w3.org/2000/svg">
<rect opacity="0.25" y="0.5" width="26" height="26" rx="13" fill="#F6D5A7"/>
<path d="M18.6301 18.3146C18.3253 17.9767 15.6106 15.3334 13.5475 13.5752C13.1186 13.1941 12.7914 12.7191 12.5937 12.1903C12.3959 11.6615 12.3334 11.0946 12.4115 10.5376C12.4573 10.0759 12.3896 9.61019 12.214 9.17827C12.0385 8.74634 11.7599 8.36026 11.4008 8.05123C9.82629 6.55859 7.70468 6.06373 6.66475 6.91666C5.62483 7.7696 5.82948 9.87779 7.10745 11.5917C7.36979 11.9859 7.72529 12.3146 8.14487 12.551C8.56445 12.7873 9.03617 12.9246 9.52141 12.9516C10.1074 12.9556 10.6837 13.0964 11.2009 13.362C11.7181 13.6275 12.1607 14.0099 12.4908 14.4764C13.9985 16.6932 16.3164 19.6664 16.6255 20.0084C16.7364 20.1451 16.8749 20.2586 17.0328 20.3421C17.1906 20.4256 17.3645 20.4773 17.5437 20.494C17.723 20.5108 17.9039 20.4922 18.0754 20.4395C18.247 20.3868 18.4056 20.301 18.5417 20.1874C18.6778 20.0738 18.7885 19.9347 18.867 19.7786C18.9456 19.6225 18.9903 19.4526 18.9986 19.2794C19.0069 19.1061 18.9785 18.933 18.9151 18.7706C18.8518 18.6082 18.7548 18.4599 18.6301 18.3347V18.3146Z" fill="#E8931E"/>
<path d="M20.8878 8.41147C20.849 8.36859 20.802 8.33436 20.7497 8.31096C20.6973 8.28755 20.6408 8.27546 20.5836 8.27546C20.5265 8.27546 20.47 8.28755 20.4176 8.31096C20.3653 8.33436 20.3182 8.36859 20.2795 8.41147L18.0077 10.8914C17.9138 10.9939 17.7839 11.0542 17.6466 11.0589C17.5092 11.0637 17.3756 11.0125 17.2752 10.9167C17.1748 10.8209 17.1158 10.6883 17.1111 10.5481C17.1065 10.4078 17.1566 10.2715 17.2504 10.1689L19.456 7.76087C19.5041 7.70928 19.5416 7.64843 19.5665 7.58188C19.5913 7.51533 19.6029 7.44439 19.6005 7.37322C19.5982 7.30205 19.5821 7.23205 19.553 7.16732C19.5239 7.10259 19.4825 7.04442 19.4312 6.9962C19.3805 6.94801 19.3209 6.91054 19.256 6.88594C19.191 6.86133 19.1219 6.85008 19.0527 6.85283C18.9835 6.85558 18.9155 6.87227 18.8526 6.90195C18.7897 6.93163 18.7332 6.97371 18.6863 7.02577L16.4807 9.45075C16.3859 9.54654 16.2584 9.60122 16.125 9.60337C15.9916 9.60551 15.8626 9.55495 15.7649 9.46225C15.6671 9.36955 15.6082 9.24187 15.6005 9.1059C15.5928 8.96992 15.6368 8.83616 15.7234 8.73255L17.9953 6.25265C18.0759 6.16917 18.1208 6.0564 18.12 5.93915C18.1192 5.82189 18.0729 5.70975 17.9911 5.62739C17.9094 5.54504 17.7989 5.49922 17.684 5.50001C17.5692 5.5008 17.4593 5.54814 17.3787 5.63162L14.5441 8.44104C14.2387 8.74136 14.0051 9.10948 13.8616 9.51684C13.7181 9.92421 13.6684 10.3599 13.7165 10.79C13.7617 11.2016 13.7179 11.6184 13.5882 12.0109C13.6997 12.2069 13.8392 12.3849 14.002 12.539C14.271 12.7798 14.5482 13.0417 14.8296 13.3121C15.2192 13.1337 15.6445 13.0512 16.071 13.0713C16.4965 13.0945 16.9214 13.0169 17.3126 12.8447C17.7038 12.6724 18.0507 12.4102 18.3263 12.0785L20.8754 9.00293C20.9529 8.92563 20.9976 8.82038 20.9999 8.70979C21.0022 8.5992 20.962 8.49209 20.8878 8.41147ZM11.2708 14.6387C9.52456 16.2272 7.50931 18.0649 7.31482 18.2846C7.09506 18.5476 6.98305 18.8869 7.00208 19.2321C7.02112 19.5772 7.16973 19.9016 7.41701 20.1377C7.6643 20.3738 7.99122 20.5036 8.3298 20.4999C8.66837 20.4963 8.99255 20.3595 9.2349 20.1181C9.42525 19.9111 10.915 17.9635 12.2888 16.1596C11.9826 15.7075 11.6888 15.2639 11.424 14.8457C11.3766 14.7739 11.3255 14.7048 11.2708 14.6387Z" fill="#969EBB"/>
</svg>
