<svg width="26" height="27" viewBox="0 0 26 27" fill="none" xmlns="http://www.w3.org/2000/svg">
<rect opacity="0.25" y="0.5" width="26" height="26" rx="13" fill="#F6D5A7"/>
<path d="M14.0387 6.15233C13.9297 6.15163 13.8229 6.18276 13.7319 6.24178C13.641 6.3008 13.5699 6.38504 13.5277 6.48383C13.4855 6.58261 13.4741 6.69149 13.4949 6.79666C13.5157 6.90182 13.5679 6.99854 13.6447 7.07455C13.7215 7.15056 13.8196 7.20243 13.9264 7.22359C14.0332 7.24475 14.1441 7.23424 14.2448 7.1934C14.3456 7.15257 14.4318 7.08323 14.4924 6.9942C14.553 6.90516 14.5854 6.80043 14.5854 6.69329C14.5854 6.55042 14.5279 6.41336 14.4255 6.31201C14.323 6.21066 14.184 6.15325 14.0387 6.15233ZM14.1316 7.64525L13.4169 7.5504C13.3701 7.54534 13.3232 7.55823 13.2859 7.58638C13.2486 7.61453 13.2239 7.65576 13.2168 7.70145L13.0024 9.29976C12.9982 9.3246 12.9996 9.35004 13.0065 9.37428C13.0134 9.39853 13.0256 9.42099 13.0423 9.44008C13.059 9.45917 13.0798 9.47443 13.1031 9.48478C13.1265 9.49513 13.1518 9.50032 13.1775 9.49998H13.8921C13.9354 9.49944 13.977 9.48347 14.0092 9.45504C14.0414 9.42662 14.062 9.38766 14.0672 9.34542L14.2745 7.84196C14.28 7.79755 14.2683 7.75274 14.2419 7.71633C14.2154 7.67993 14.1761 7.65457 14.1316 7.64525ZM17.9909 5.27765L17.7264 4.62428C17.7201 4.60139 17.7089 4.58007 17.6936 4.56173C17.6783 4.54338 17.6593 4.52841 17.6377 4.5178C17.6161 4.50719 17.5925 4.50118 17.5684 4.50016C17.5442 4.49913 17.5202 4.50312 17.4977 4.51187L14.7998 5.56569C14.7563 5.58363 14.7216 5.61744 14.7029 5.66002C14.6843 5.7026 14.6831 5.75063 14.6997 5.79402L14.9642 6.4474C14.9724 6.46916 14.9851 6.48906 15.0014 6.50588C15.0177 6.52271 15.0373 6.53612 15.059 6.54531C15.0807 6.5545 15.104 6.55928 15.1277 6.55936C15.1513 6.55943 15.1747 6.5548 15.1964 6.54575L17.8908 5.49193C17.9321 5.47543 17.9654 5.44409 17.984 5.40427C18.0026 5.36446 18.0051 5.31918 17.9909 5.27765Z" fill="#969EBB"/>
<path d="M16.8029 8.50005H16.0159C15.9663 8.49988 15.9185 8.5193 15.8821 8.55442C15.8456 8.58953 15.8231 8.63776 15.8192 8.68946L15.6421 11.3824H9.34612L9.18085 8.68946C9.17781 8.6374 9.15562 8.58859 9.11894 8.55328C9.08226 8.51797 9.03393 8.49889 8.9841 8.50005H8.1971C8.17024 8.5 8.14365 8.50571 8.11898 8.51682C8.09431 8.52793 8.07207 8.54421 8.05363 8.56465C8.0352 8.5851 8.02097 8.60928 8.0118 8.6357C8.00264 8.66212 7.99874 8.69023 8.00035 8.71828L8.78735 20.9765C8.81718 21.3915 8.99609 21.7794 9.2881 22.062C9.58011 22.3447 9.96356 22.5012 10.3613 22.5H14.6387C15.0383 22.5009 15.4234 22.3428 15.7157 22.0575C16.008 21.7723 16.1857 21.3814 16.2127 20.9641L16.9996 8.71828C17.0013 8.69023 16.9974 8.66212 16.9882 8.6357C16.979 8.60928 16.9648 8.5851 16.9464 8.56465C16.9279 8.54421 16.9057 8.52793 16.881 8.51682C16.8563 8.50571 16.8298 8.5 16.8029 8.50005ZM10.9634 20.7459H10.924C10.7999 20.7462 10.6803 20.6969 10.5897 20.6082C10.499 20.5194 10.4441 20.3979 10.4361 20.2682L10.0426 14.9153C10.0344 14.8462 10.0397 14.7761 10.0582 14.7092C10.0767 14.6423 10.1079 14.58 10.1501 14.5262C10.1922 14.4723 10.2443 14.4279 10.3034 14.3957C10.3624 14.3635 10.427 14.3442 10.4933 14.3389C10.5597 14.3336 10.6264 14.3424 10.6893 14.3649C10.7523 14.3873 10.8103 14.4229 10.8598 14.4695C10.9092 14.5161 10.9492 14.5727 10.9771 14.6358C11.0051 14.699 11.0205 14.7675 11.0224 14.8371L11.4159 20.19C11.4213 20.2576 11.4138 20.3257 11.394 20.3903C11.3741 20.4549 11.3422 20.5148 11.3002 20.5665C11.2581 20.6181 11.2067 20.6606 11.1489 20.6914C11.0911 20.7222 11.0281 20.7407 10.9634 20.7459Z" fill="#E8931E"/>
</svg>
