<svg width="26" height="27" viewBox="0 0 26 27" fill="none" xmlns="http://www.w3.org/2000/svg">
<rect opacity="0.25" y="0.5" width="26" height="26" rx="13" fill="#F6D5A7"/>
<path d="M15.2479 18.6794H11.287C11.1116 18.6794 10.9433 18.7491 10.8192 18.8732C10.6952 18.9973 10.6255 19.1655 10.6255 19.341V19.4505C10.626 19.5369 10.6436 19.6223 10.6771 19.7018C10.7106 19.7814 10.7595 19.8536 10.8209 19.9142C10.8823 19.9749 10.9551 20.0229 11.0351 20.0554C11.1151 20.088 11.2007 20.1045 11.287 20.1039H11.9485V20.2825C11.9485 20.6054 12.0768 20.9151 12.3051 21.1434C12.5334 21.3717 12.8431 21.5 13.166 21.5H13.3689C13.6918 21.5 14.0015 21.3717 14.2298 21.1434C14.4582 20.9151 14.5864 20.6054 14.5864 20.2825V20.1039H15.2479C15.4223 20.1039 15.5895 20.0347 15.7128 19.9114C15.8361 19.7881 15.9054 19.6208 15.9054 19.4465V19.3369C15.9043 19.1629 15.8347 18.9962 15.7116 18.8732C15.5886 18.7501 15.422 18.6805 15.2479 18.6794Z" fill="#969EBB"/>
<path d="M12.6505 5.53046C10.4346 5.77802 8.29588 7.90459 8.03614 10.1204C7.95297 10.8274 8.01371 11.5439 8.21471 12.2267C8.3276 12.4677 8.50317 12.674 8.72306 12.8239C8.94295 12.9738 9.19909 13.0619 9.46468 13.079C9.83712 13.0662 10.1996 12.9556 10.5158 12.7584C10.3102 12.4124 10.218 12.0107 10.2522 11.6097C10.2864 11.2086 10.4453 10.8284 10.7065 10.5222C11.4573 9.47516 14.217 8.2536 14.8988 7.95735C14.9463 7.93705 14.9991 7.93241 15.0494 7.94408C15.0997 7.95576 15.1451 7.98314 15.1788 8.02228C15.7105 8.5945 16.928 11.3339 15.5603 13.359C15.1887 13.8311 14.7079 14.2056 14.1592 14.4502C13.6105 14.6949 13.0105 14.8023 12.411 14.7632C12.3614 14.7568 12.3146 14.7363 12.2761 14.7043C12.2376 14.6723 12.209 14.6299 12.1937 14.5823C12.1784 14.5346 12.1769 14.4836 12.1896 14.4351C12.2022 14.3867 12.2283 14.3428 12.2649 14.3086C13.3259 13.3729 14.055 12.1184 14.3428 10.7332C14.3504 10.689 14.3428 10.6434 14.3212 10.604C14.2996 10.5646 14.2653 10.5337 14.2239 10.5163C14.1825 10.4989 14.1364 10.496 14.0931 10.5081C14.0499 10.5203 14.012 10.5467 13.9857 10.5831L13.7584 10.9078C12.2771 12.9937 10.812 14.0895 9.48903 14.0895H9.46062C9.36415 14.0876 9.2679 14.0795 9.17248 14.0651C9.27394 14.1869 9.37539 14.3086 9.48091 14.4223C10.0933 15.0494 10.4356 15.8915 10.4346 16.768C10.4346 16.9833 10.5201 17.1897 10.6724 17.3419C10.8246 17.4941 11.031 17.5797 11.2463 17.5797H15.3046C15.5199 17.5797 15.7263 17.4941 15.8786 17.3419C16.0308 17.1897 16.1163 16.9833 16.1163 16.768C16.1031 15.8969 16.4308 15.0552 17.0294 14.4223C17.7771 13.6405 18.2664 12.6477 18.431 11.5786C18.5955 10.5094 18.4275 9.41545 17.9496 8.44497C17.4716 7.4745 16.7069 6.6744 15.7591 6.15307C14.8112 5.63174 13.726 5.41439 12.6505 5.53046Z" fill="#E8931E"/>
</svg>
