<svg width="26" height="27" viewBox="0 0 26 27" fill="none" xmlns="http://www.w3.org/2000/svg">
<rect opacity="0.25" y="0.5" width="26" height="26" rx="13" fill="#F6D5A7"/>
<path d="M18.2838 11.4512C18.5382 11.0472 18.6615 10.5729 18.6366 10.0945C18.6117 9.61608 18.4399 9.1575 18.1451 8.78279L17.9611 8.54987V6.5H15.7038V8.04883C15.7038 8.16331 15.6589 8.2731 15.579 8.35404C15.499 8.43499 15.3905 8.48047 15.2775 8.48047C15.1644 8.48047 15.0559 8.43499 14.976 8.35404C14.896 8.2731 14.8511 8.16331 14.8511 8.04883V6.5H12.5938V8.54987L12.4099 8.78279C12.115 9.1575 11.9432 9.61608 11.9183 10.0945C11.8934 10.5729 12.0168 11.0472 12.2711 11.4512H18.2838Z" fill="#969EBB"/>
<path d="M19.5541 16.013C19.5144 14.1253 18.8606 12.8984 18.3332 12.2125H12.2221C11.6948 12.8984 11.041 14.1256 11.0012 16.013C10.9758 17.229 11.2945 19.1046 11.3079 19.1838L11.362 19.5H19.1933L19.2475 19.1841C19.2609 19.1049 19.5796 17.2294 19.5541 16.0133V16.013Z" fill="#969EBB"/>
<path d="M6.18686 7.52989C6.03133 7.61967 5.895 7.73921 5.78568 7.88168C5.67635 8.02415 5.59615 8.18676 5.54967 8.36023C5.50319 8.53369 5.49134 8.71461 5.51478 8.89266C5.53823 9.07071 5.59652 9.24239 5.68632 9.39791C6.04974 10.0264 6.75538 10.2386 7.18639 10.9852C7.59944 11.7006 7.47652 12.6107 7.29411 13.2588L10.6837 11.375C10.0214 11.2186 9.11236 10.873 8.67944 10.1231C8.24652 9.3733 8.41747 8.6594 8.05488 8.03042C7.9651 7.87489 7.84556 7.73857 7.70309 7.62924C7.56062 7.51991 7.39801 7.43972 7.22454 7.39324C7.05108 7.34676 6.87016 7.3349 6.69211 7.35835C6.51406 7.3818 6.34238 7.44009 6.18686 7.52989Z" fill="#E8931E"/>
<path d="M5.44672 15.1553C5.35413 15.2088 5.27298 15.2799 5.2079 15.3648C5.14281 15.4496 5.09507 15.5464 5.0674 15.6497C5.03973 15.7529 5.03267 15.8606 5.04662 15.9666C5.06058 16.0726 5.09528 16.1748 5.14873 16.2674C5.25669 16.4544 5.43451 16.5909 5.64307 16.6467C5.74634 16.6744 5.85405 16.6815 5.96005 16.6675C6.06604 16.6536 6.16826 16.6189 6.26084 16.5654L9.44401 14.7967L10.9453 17.3999C11.0533 17.5869 11.2311 17.7234 11.4396 17.7792C11.6482 17.8351 11.8704 17.8059 12.0574 17.6979C12.2444 17.59 12.3809 17.4121 12.4367 17.2036C12.4926 16.995 12.4634 16.7728 12.3554 16.5858L10.8653 14.0049L13.9223 12.3079C14.1093 12.2 14.2458 12.0222 14.3017 11.8136C14.3576 11.605 14.3283 11.3828 14.2203 11.1958C14.1124 11.0088 13.9346 10.8724 13.726 10.8165C13.5174 10.7606 13.2952 10.7899 13.1082 10.8978L5.44672 15.1553Z" fill="#E8931E"/>
<path d="M12.9429 16.0823C13.3776 16.1929 13.7695 16.4306 14.0684 16.765C14.3674 17.0994 14.5598 17.5154 14.6212 17.9597C14.6826 18.404 14.6101 18.8566 14.413 19.2595C14.2158 19.6624 13.9031 19.9974 13.5146 20.2217C13.1262 20.446 12.6796 20.5494 12.2321 20.5186C11.7846 20.4878 11.3565 20.3244 11.0024 20.049C10.6482 19.7737 10.3842 19.3991 10.2441 18.973C10.104 18.5469 10.094 18.0887 10.2156 17.6569L9.27435 16.0266C8.76213 16.7382 8.50934 17.6039 8.55813 18.4793C8.60692 19.3547 8.95434 20.187 9.54247 20.8373C10.1306 21.4876 10.9239 21.9166 11.79 22.0528C12.6562 22.189 13.5428 22.0241 14.3021 21.5857C15.0615 21.1473 15.6475 20.4619 15.9627 19.6437C16.2778 18.8255 16.3029 17.924 16.0338 17.0895C15.7647 16.255 15.2177 15.538 14.4839 15.0581C13.7502 14.5781 12.874 14.3642 12.0017 14.452L12.9429 16.0823Z" fill="#E8931E"/>
</svg>
