<svg width="26" height="27" viewBox="0 0 26 27" fill="none" xmlns="http://www.w3.org/2000/svg">
<rect opacity="0.25" y="0.5" width="26" height="26" rx="13" fill="#F6D5A7"/>
<path d="M13.936 15.5528C13.8224 15.5239 13.7061 15.4921 13.5925 15.4546C13.4081 15.8793 12.3296 16.2058 11.0382 16.2058C9.74686 16.2058 8.68823 15.8909 8.48389 15.4748C8.40442 15.5037 8.32211 15.5355 8.24265 15.5586C7.73536 15.7214 7.20995 15.8185 6.67883 15.8475H6.4234C7.09604 17.1275 8.90393 18.5 11.0354 18.5C13.2378 18.5 15.0968 17.038 15.7126 15.7233L15.5026 15.7435C14.9744 15.7507 14.4476 15.6866 13.936 15.5528ZM16.9898 14.5358C16.9675 14.4941 16.9301 14.4629 16.8856 14.4488C16.8411 14.4348 16.7929 14.439 16.7514 14.4606L16.7173 14.4809C16.5571 14.5613 16.3821 14.6066 16.2036 14.6138C15.0684 14.5878 13.9558 12.6259 13.8253 12.3861C13.695 12.1268 13.4988 11.9079 13.2571 11.7522C13.0154 11.5964 12.7371 11.5096 12.4512 11.5008C12.1653 11.4919 11.8823 11.5613 11.6318 11.7018C11.3812 11.8423 11.1723 12.0487 11.0269 12.2994C10.8883 12.0538 10.6874 11.8507 10.4452 11.7114C10.203 11.5721 9.92848 11.5017 9.65036 11.5077C9.35721 11.4991 9.06778 11.5762 8.8163 11.7298C8.56482 11.8834 8.36182 12.1071 8.23129 12.3745C8.23129 12.3745 7.21524 14.3046 6.0885 14.5878C5.83766 14.6123 5.58492 14.5684 5.35626 14.4606L5.31085 14.4375C5.26718 14.4132 5.21644 14.4054 5.16768 14.4157C5.11892 14.4259 5.07531 14.4534 5.04463 14.4933C5.01395 14.5332 4.99819 14.5829 5.00017 14.6336C5.00214 14.6842 5.02172 14.7325 5.05542 14.7698C5.26002 14.996 5.52891 15.1516 5.82455 15.2148C6.09474 15.2825 6.3722 15.3155 6.65045 15.313C7.1865 15.2903 7.71761 15.199 8.23129 15.0414C8.49091 14.9682 8.74357 14.8715 8.98624 14.7525C9.16282 14.6597 9.35579 14.6037 9.55387 14.5878C9.64807 14.5753 9.74347 14.5753 9.83768 14.5878C9.88665 14.5932 9.93507 14.6029 9.98243 14.6167L10.147 14.6658C10.4237 14.7478 10.7103 14.7897 10.9985 14.79C11.2868 14.7844 11.5732 14.7397 11.8499 14.6571L12.0174 14.608C12.065 14.5946 12.1133 14.584 12.1621 14.5762C12.2565 14.5666 12.3516 14.5666 12.4459 14.5762C12.6486 14.5896 12.8465 14.6446 13.0277 14.738C13.2726 14.8543 13.5259 14.9509 13.7855 15.027C14.2969 15.1803 14.8251 15.2677 15.3579 15.287C15.6342 15.2884 15.9096 15.2554 16.1781 15.1888C16.4666 15.1253 16.7285 14.9717 16.9274 14.7496C16.9581 14.7268 16.9809 14.6946 16.9921 14.6576C17.0034 14.6206 17.0026 14.5809 16.9898 14.5444V14.5358Z" fill="#969EBB"/>
<path d="M6.50613 11.5C6.40711 11.4988 6.30997 11.527 6.22701 11.5811C6.14405 11.6352 6.07902 11.7126 6.04014 11.8037C6.00127 11.8948 5.99031 11.9953 6.00866 12.0926C6.02701 12.1899 6.07383 12.2796 6.1432 12.3503C6.21257 12.4209 6.30135 12.4694 6.3983 12.4895C6.49525 12.5097 6.596 12.5006 6.68777 12.4634C6.77954 12.4262 6.85821 12.3626 6.91379 12.2807C6.96937 12.1987 6.99938 12.1021 6.99999 12.0031C7.00081 11.871 6.94933 11.744 6.8568 11.6497C6.76427 11.5555 6.6382 11.5017 6.50613 11.5Z" fill="#969EBB"/>
<path d="M19.3727 6.217C18.9141 6.09419 18.4255 6.15855 18.0143 6.39594C17.6032 6.63332 17.3031 7.02428 17.1802 7.48285L16.7193 9.2127L15.8535 8.9807C15.8074 8.96913 15.7587 8.97593 15.7176 8.99966C15.6765 9.02338 15.6463 9.06218 15.6333 9.10782L15.3554 10.1448C15.3492 10.1677 15.3476 10.1915 15.3506 10.2149C15.3536 10.2383 15.3613 10.261 15.3731 10.2814C15.3849 10.3019 15.4007 10.3198 15.4195 10.3342C15.4382 10.3485 15.4597 10.359 15.4825 10.365L20.6694 11.7575C20.7148 11.7692 20.763 11.7626 20.8036 11.7391C20.8442 11.7157 20.8739 11.6773 20.8865 11.6321L21.1644 10.5951C21.1706 10.5723 21.1722 10.5485 21.1692 10.5251C21.1662 10.5016 21.1585 10.479 21.1467 10.4586C21.1349 10.4381 21.1191 10.4202 21.1004 10.4058C21.0816 10.3915 21.0601 10.381 21.0373 10.3749L20.1746 10.1412L20.6403 8.41262C20.7016 8.18522 20.7174 7.94796 20.6868 7.71445C20.6562 7.48094 20.5798 7.25576 20.4621 7.0518C20.3443 6.84785 20.1875 6.66913 20.0005 6.52588C19.8136 6.38263 19.6003 6.27767 19.3727 6.217Z" fill="#E8931E"/>
<path d="M19.4549 12.1818L16.3367 11.3358C16.3139 11.3296 16.2901 11.3279 16.2666 11.331C16.2432 11.334 16.2206 11.3417 16.2001 11.3535C16.1796 11.3653 16.1617 11.3811 16.1474 11.3998C16.133 11.4186 16.1225 11.4401 16.1165 11.4629L14.14 18.8395C14.1146 18.9305 14.1262 19.0278 14.1723 19.1103L14.9851 20.5182L14.7798 21.2942C14.7611 21.3623 14.7561 21.4334 14.7651 21.5034C14.7742 21.5735 14.797 21.641 14.8323 21.7022C14.8676 21.7634 14.9147 21.8169 14.9708 21.8597C15.027 21.9025 15.0911 21.9338 15.1594 21.9516C15.2969 21.9884 15.4434 21.9691 15.5667 21.8979C15.6899 21.8267 15.7799 21.7095 15.8169 21.5721L16.0181 20.7819L17.4229 19.9708C17.4639 19.9475 17.4998 19.9163 17.5287 19.879C17.5576 19.8418 17.5788 19.7992 17.5912 19.7537L19.5749 12.3896C19.5842 12.3462 19.577 12.301 19.5549 12.2626C19.5327 12.2243 19.4971 12.1955 19.4549 12.1818ZM16.8422 16.3366L16.2917 18.3911C16.2775 18.4481 16.2519 18.5016 16.2164 18.5485C16.1808 18.5953 16.1362 18.6344 16.0851 18.6634C16.0338 18.6931 15.9772 18.7123 15.9184 18.72C15.8597 18.7276 15.8 18.7236 15.7428 18.708C15.6289 18.6757 15.5321 18.6003 15.473 18.4978C15.4138 18.3953 15.3969 18.2738 15.4259 18.1591L15.9782 16.1077C15.9905 16.0481 16.0148 15.9916 16.0496 15.9416C16.0845 15.8917 16.1292 15.8494 16.181 15.8174C16.2327 15.7853 16.2905 15.7642 16.3507 15.7552C16.4109 15.7463 16.4724 15.7497 16.5312 15.7653C16.5901 15.7809 16.6451 15.8083 16.693 15.8459C16.7409 15.8835 16.7806 15.9305 16.8097 15.984C16.8388 16.0374 16.8567 16.0963 16.8623 16.1569C16.8679 16.2176 16.8611 16.2787 16.8422 16.3366ZM17.4425 14.0962L17.2523 14.7766C17.2196 14.891 17.1438 14.9882 17.0408 15.0476C16.9642 15.0912 16.8764 15.1112 16.7885 15.1052C16.7006 15.0991 16.6164 15.0672 16.5466 15.0135C16.4767 14.9598 16.4242 14.8866 16.3958 14.8032C16.3673 14.7198 16.3641 14.6299 16.3865 14.5446L16.5677 13.8487C16.58 13.7891 16.6043 13.7326 16.6392 13.6827C16.6741 13.6328 16.7188 13.5905 16.7705 13.5584C16.8223 13.5264 16.8801 13.5052 16.9403 13.4963C17.0005 13.4873 17.0619 13.4907 17.1208 13.5063C17.1796 13.5219 17.2347 13.5493 17.2826 13.5869C17.3305 13.6245 17.3702 13.6715 17.3993 13.725C17.4284 13.7785 17.4463 13.8373 17.4519 13.898C17.4575 13.9586 17.4506 14.0197 17.4318 14.0776L17.4425 14.0962Z" fill="#E8931E"/>
</svg>
