<svg width="16" height="16" viewBox="0 0 16 16" fill="none" xmlns="http://www.w3.org/2000/svg">
<path opacity="0.4" fill-rule="evenodd" clip-rule="evenodd" d="M3.9404 13.7257C3.9404 13.1657 4.39373 12.7124 4.95373 12.7124C5.50707 12.7124 5.9604 13.1657 5.9604 13.7257C5.9604 14.2791 5.50707 14.7324 4.95373 14.7324C4.39373 14.7324 3.9404 14.2791 3.9404 13.7257ZM11.4404 13.7257C11.4404 13.1657 11.8937 12.7124 12.4537 12.7124C13.0071 12.7124 13.4604 13.1657 13.4604 13.7257C13.4604 14.2791 13.0071 14.7324 12.4537 14.7324C11.8937 14.7324 11.4404 14.2791 11.4404 13.7257Z" fill="white"/>
<path fill-rule="evenodd" clip-rule="evenodd" d="M13.4605 4.23272C13.8672 4.23272 14.1339 4.37272 14.4005 4.67939C14.6672 4.98606 14.7139 5.42606 14.6539 5.82539L14.0205 10.1987C13.9005 11.0394 13.1805 11.6587 12.3339 11.6587H5.06054C4.17387 11.6587 3.44054 10.9787 3.3672 10.0994L2.75387 2.83206L1.7472 2.65872C1.48054 2.61206 1.29387 2.35206 1.34054 2.08539C1.3872 1.81206 1.6472 1.63206 1.92054 1.67206L3.51054 1.91206C3.7372 1.95272 3.90387 2.13872 3.92387 2.36539L4.05054 3.85872C4.07054 4.07272 4.24387 4.23272 4.4572 4.23272H13.4605ZM9.42054 7.69872H11.2672C11.5472 7.69872 11.7672 7.47206 11.7672 7.19872C11.7672 6.91872 11.5472 6.69872 11.2672 6.69872H9.42054C9.14054 6.69872 8.92054 6.91872 8.92054 7.19872C8.92054 7.47206 9.14054 7.69872 9.42054 7.69872Z" fill="white"/>
</svg>
