<svg width="19" height="17" viewBox="0 0 19 17" fill="none" xmlns="http://www.w3.org/2000/svg">
<path d="M14.5 17L4.5 17C2.019 17 -6.5484e-07 14.981 -5.46392e-07 12.5L-3.71547e-07 8.5C-3.59482e-07 8.224 0.224001 8 0.5 8C0.775999 8 1 8.224 1 8.5L0.999999 12.5C0.999999 14.43 2.57 16 4.5 16L14.5 16C16.43 16 18 14.43 18 12.5L18 8.5C18 8.224 18.224 8 18.5 8C18.776 8 19 8.224 19 8.5L19 12.5C19 14.981 16.981 17 14.5 17ZM9.854 10.854L13.854 6.854C14.049 6.659 14.049 6.342 13.854 6.147C13.659 5.952 13.342 5.952 13.147 6.147L10.001 9.293L10.001 0.5C10.001 0.224 9.77701 -4.0315e-07 9.50101 -4.15214e-07C9.22501 -4.27279e-07 9.00101 0.224 9.00101 0.5L9.00101 9.293L5.85501 6.147C5.66001 5.952 5.34301 5.952 5.14801 6.147C5.05001 6.245 5.00201 6.37301 5.00201 6.50101C5.00201 6.62901 5.05101 6.75701 5.14801 6.85501L9.14801 10.855C9.34201 11.049 9.658 11.049 9.854 10.854Z" fill="#E8931E"/>
</svg>
