<svg width="19" height="19" viewBox="0 0 19 19" fill="none" xmlns="http://www.w3.org/2000/svg">
<path d="M9.51502 13C8.82279 13.003 8.14524 12.8006 7.56803 12.4185C6.99082 12.0364 6.53988 11.4917 6.27224 10.8533C6.0046 10.2149 5.93227 9.51145 6.06441 8.83195C6.19655 8.15244 6.52722 7.52738 7.0146 7.03581C7.50198 6.54423 8.12418 6.20822 8.80252 6.07026C9.48087 5.93231 10.1849 5.9986 10.8256 6.26076C11.4662 6.52292 12.0148 6.96917 12.4018 7.54308C12.7889 8.117 12.997 8.79279 13 9.48502C13.002 9.94465 12.9134 10.4002 12.7393 10.8256C12.5653 11.251 12.3091 11.6379 11.9855 11.9643C11.6619 12.2907 11.2772 12.5502 10.8533 12.7279C10.4294 12.9056 9.97465 12.9981 9.51502 13ZM9.49002 7.00002C8.99557 7.002 8.51282 7.15056 8.1028 7.42691C7.69278 7.70325 7.37392 8.09498 7.18653 8.55255C6.99914 9.01011 6.95165 9.51297 7.05005 9.99753C7.14845 10.4821 7.38833 10.9266 7.73936 11.2748C8.09038 11.6231 8.53679 11.8594 9.02212 11.9539C9.50745 12.0484 10.0099 11.9969 10.466 11.8059C10.922 11.6148 11.3112 11.2928 11.5842 10.8806C11.8573 10.4684 12.002 9.98447 12 9.49002C11.9987 9.16171 11.9327 8.83688 11.8059 8.53407C11.679 8.23126 11.4938 7.95639 11.2607 7.72518C11.0276 7.49396 10.7513 7.31091 10.4475 7.18649C10.1437 7.06207 9.81833 6.9987 9.49002 7.00002ZM10.04 19H9.04002C8.50976 19.0024 8.00025 18.7941 7.62352 18.421C7.24678 18.0478 7.03367 17.5403 7.03102 17.01C7.03199 16.8883 6.9965 16.769 6.92914 16.6676C6.86178 16.5662 6.76561 16.4873 6.65302 16.441H6.64602C6.53998 16.3975 6.42342 16.3864 6.31109 16.4092C6.19876 16.432 6.09572 16.4876 6.01502 16.569C5.83056 16.7592 5.61029 16.911 5.3669 17.0157C5.12351 17.1203 4.86181 17.1758 4.59689 17.1789C4.33197 17.1819 4.06906 17.1325 3.82331 17.0335C3.57756 16.9345 3.35383 16.7879 3.16502 16.602L2.45702 15.902C2.27009 15.7167 2.12157 15.4964 2.01997 15.2536C1.91837 15.0108 1.86568 14.7504 1.86494 14.4872C1.8642 14.224 1.91541 13.9632 2.01564 13.7199C2.11587 13.4765 2.26314 13.2553 2.44902 13.069C2.53299 12.9824 2.58991 12.8732 2.61282 12.7547C2.63573 12.6363 2.62363 12.5137 2.57802 12.402C2.53411 12.2946 2.4592 12.2027 2.36284 12.1381C2.26649 12.0734 2.15306 12.0389 2.03702 12.039C1.77162 12.043 1.50806 11.9943 1.26161 11.8957C1.01516 11.7971 0.790715 11.6506 0.601266 11.4647C0.411817 11.2788 0.261128 11.0571 0.157923 10.8126C0.0547188 10.568 0.00104874 10.3055 2.03908e-05 10.04V9.04002C-0.00237241 8.50976 0.205913 8.00025 0.579083 7.62352C0.952253 7.24678 1.45976 7.03367 1.99002 7.03102C2.11175 7.03199 2.23099 6.9965 2.3324 6.92914C2.4338 6.86178 2.51272 6.76561 2.55902 6.65302V6.64602C2.60214 6.53992 2.61299 6.42345 2.59022 6.31121C2.56745 6.19897 2.51207 6.09594 2.43102 6.01502C2.24109 5.83036 2.08956 5.60996 1.98515 5.36651C1.88073 5.12305 1.82549 4.86135 1.82261 4.59647C1.81973 4.33159 1.86926 4.06875 1.96836 3.82308C2.06745 3.57741 2.21416 3.35377 2.40002 3.16502L3.10002 2.45402C3.28496 2.26743 3.50485 2.1191 3.74713 2.01751C3.9894 1.91592 4.24932 1.86305 4.51203 1.86194C4.77475 1.86083 5.03511 1.91148 5.27824 2.01101C5.52137 2.11055 5.74251 2.257 5.92902 2.44202C6.01407 2.5291 6.12326 2.58869 6.24251 2.61311C6.36176 2.63753 6.48559 2.62566 6.59802 2.57902C6.70604 2.53576 6.79858 2.46107 6.86366 2.36461C6.92873 2.26815 6.96335 2.15438 6.96302 2.03802C6.95905 1.77274 7.0077 1.50929 7.10614 1.26292C7.20459 1.01655 7.35088 0.792123 7.53657 0.602621C7.72226 0.413119 7.94367 0.262294 8.18799 0.158863C8.43231 0.0554316 8.69471 0.00144414 8.96002 2.03908e-05H9.96002C10.4903 -0.00237241 10.9998 0.205913 11.3765 0.579083C11.7533 0.952253 11.9664 1.45976 11.969 1.99002C11.9659 2.1104 11.9995 2.22889 12.0654 2.32966C12.1314 2.43043 12.2264 2.5087 12.338 2.55402C12.4472 2.59855 12.5668 2.61082 12.6828 2.58937C12.7987 2.56792 12.906 2.51366 12.992 2.43302C13.1768 2.24146 13.3981 2.08887 13.6429 1.98427C13.8876 1.87967 14.1509 1.82518 14.417 1.82402C14.6798 1.82229 14.9403 1.87266 15.1836 1.97221C15.4268 2.07176 15.6479 2.21853 15.834 2.40402L16.542 3.10402C16.7286 3.28896 16.8769 3.50885 16.9785 3.75113C17.0801 3.9934 17.133 4.25332 17.1341 4.51603C17.1352 4.77875 17.0846 5.03911 16.985 5.28224C16.8855 5.52537 16.739 5.74651 16.554 5.93302C16.4673 6.01573 16.4073 6.12251 16.3818 6.23961C16.3564 6.3567 16.3665 6.47875 16.411 6.59002L16.418 6.60402C16.4613 6.71166 16.5359 6.80382 16.6322 6.86855C16.7285 6.93327 16.842 6.96758 16.958 6.96702C17.2233 6.96252 17.4869 7.01064 17.7334 7.1086C17.98 7.20655 18.2047 7.35241 18.3946 7.53772C18.5845 7.72304 18.7357 7.94415 18.8397 8.18828C18.9436 8.43241 18.9981 8.69471 19 8.96002V9.96002C19.0012 10.2227 18.9506 10.4831 18.8511 10.7263C18.7517 10.9695 18.6052 11.1907 18.4203 11.3772C18.2353 11.5638 18.0153 11.7121 17.773 11.8136C17.5307 11.9152 17.2708 11.968 17.008 11.969C16.8876 11.9659 16.7692 11.9995 16.6684 12.0654C16.5676 12.1314 16.4893 12.2264 16.444 12.338C16.3997 12.4472 16.3876 12.5668 16.409 12.6827C16.4305 12.7986 16.4846 12.9059 16.565 12.992C16.7551 13.1761 16.9068 13.3961 17.0113 13.6392C17.1158 13.8824 17.171 14.1438 17.1737 14.4085C17.1764 14.6731 17.1265 14.9356 17.027 15.1808C16.9275 15.4261 16.7803 15.6491 16.594 15.837L15.894 16.545C15.7091 16.7316 15.4892 16.8799 15.2469 16.9815C15.0046 17.0831 14.7447 17.136 14.482 17.1371C14.2193 17.1382 13.9589 17.0876 13.7158 16.988C13.4727 16.8885 13.2515 16.742 13.065 16.557C12.9823 16.4703 12.8755 16.4103 12.7584 16.3848C12.6413 16.3594 12.5193 16.3695 12.408 16.414C12.2983 16.4579 12.204 16.5333 12.1369 16.6306C12.0698 16.7279 12.033 16.8428 12.031 16.961C12.0351 17.2259 11.9868 17.4889 11.8888 17.735C11.7907 17.9811 11.645 18.2054 11.4599 18.395C11.2749 18.5845 11.0541 18.7355 10.8104 18.8394C10.5667 18.9432 10.3049 18.9978 10.04 19ZM7.08102 15.539C7.35937 15.6643 7.59642 15.8661 7.7646 16.1208C7.93277 16.3756 8.02516 16.6728 8.03102 16.978C8.0289 17.1111 8.05315 17.2432 8.10236 17.3668C8.15157 17.4905 8.22476 17.6031 8.31773 17.6983C8.41069 17.7935 8.52158 17.8694 8.64401 17.9215C8.76643 17.9736 8.89797 18.001 9.03102 18.002H10.031C10.2962 18.002 10.5506 17.8967 10.7381 17.7091C10.9257 17.5216 11.031 17.2672 11.031 17.002C11.0298 16.6819 11.1234 16.3685 11.3002 16.1015C11.4769 15.8346 11.7288 15.6259 12.024 15.502C12.3123 15.381 12.63 15.3483 12.9369 15.4079C13.2437 15.4676 13.526 15.6169 13.748 15.837C13.8409 15.9331 13.9519 16.0097 14.0746 16.0625C14.1973 16.1153 14.3293 16.1432 14.4629 16.1446C14.5965 16.146 14.729 16.1209 14.8528 16.0707C14.9766 16.0204 15.0892 15.9461 15.184 15.852L15.884 15.144C15.9768 15.0506 16.0502 14.9398 16.1 14.8179C16.1498 14.696 16.1751 14.5655 16.1743 14.4339C16.1736 14.3022 16.1468 14.172 16.0957 14.0507C16.0445 13.9294 15.9698 13.8194 15.876 13.727C15.6524 13.504 15.4989 13.2205 15.4342 12.9114C15.3696 12.6023 15.3966 12.281 15.512 11.987V11.976L15.517 11.963C15.6344 11.6727 15.8358 11.4239 16.0953 11.2486C16.3549 11.0733 16.6608 10.9795 16.974 10.979C17.1069 10.9809 17.2388 10.9564 17.3622 10.9071C17.4856 10.8578 17.598 10.7845 17.693 10.6916C17.788 10.5987 17.8637 10.4879 17.9157 10.3656C17.9677 10.2433 17.995 10.1119 17.996 9.97902V8.97902C17.996 8.7138 17.8907 8.45945 17.7031 8.27191C17.5156 8.08438 17.2612 7.97902 16.996 7.97902C16.6772 7.98477 16.3641 7.89447 16.0973 7.71988C15.8305 7.54528 15.6224 7.29446 15.5 7.00002V6.99302C15.3764 6.70344 15.3418 6.38361 15.4005 6.07427C15.4593 5.76493 15.6088 5.48009 15.83 5.25602C15.9262 5.16323 16.0029 5.05225 16.0558 4.92952C16.1087 4.8068 16.1367 4.67479 16.1381 4.54116C16.1395 4.40753 16.1143 4.27497 16.064 4.15116C16.0137 4.02736 15.9392 3.9148 15.845 3.82002L15.137 3.12002C15.0437 3.02746 14.933 2.9542 14.8114 2.90444C14.6897 2.85468 14.5595 2.82939 14.428 2.83002C14.2961 2.83041 14.1657 2.85715 14.0442 2.90867C13.9228 2.96019 13.8129 3.03544 13.721 3.13002C13.498 3.35359 13.2145 3.50714 12.9054 3.57181C12.5963 3.63647 12.275 3.60944 11.981 3.49402H11.97H11.957C11.6667 3.37662 11.4179 3.17527 11.2426 2.91571C11.0673 2.65616 10.9735 2.35022 10.973 2.03702C10.9749 1.90415 10.9504 1.77222 10.9011 1.64882C10.8518 1.52543 10.7785 1.41301 10.6856 1.31802C10.5927 1.22304 10.4819 1.14737 10.3596 1.09537C10.2373 1.04337 10.1059 1.01606 9.97302 1.01502H8.97302C8.7078 1.01502 8.45345 1.12038 8.26591 1.30791C8.07838 1.49545 7.97302 1.7498 7.97302 2.01502C7.97628 2.33256 7.88427 2.64378 7.70886 2.9085C7.53346 3.17321 7.28272 3.37925 6.98902 3.50002C6.69882 3.62023 6.37983 3.65304 6.07124 3.59441C5.76265 3.53578 5.47791 3.38828 5.25202 3.17002C5.15916 3.07397 5.04815 2.99733 4.92544 2.94452C4.80272 2.89172 4.67074 2.86381 4.53716 2.86241C4.40357 2.86101 4.27103 2.88616 4.14724 2.93639C4.02345 2.98662 3.91087 3.06094 3.81602 3.15502L3.11602 3.86602C3.02344 3.95929 2.95014 4.06989 2.90033 4.1915C2.85052 4.31311 2.82517 4.44335 2.82573 4.57476C2.82629 4.70618 2.85274 4.8362 2.90358 4.95738C2.95442 5.07857 3.02865 5.18854 3.12202 5.28102C3.35051 5.5013 3.50785 5.78491 3.57379 6.09536C3.63973 6.40581 3.61125 6.72889 3.49202 7.02302C3.48457 7.0419 3.47588 7.06028 3.46602 7.07802C3.34072 7.35637 3.13896 7.59342 2.88422 7.7616C2.62947 7.92977 2.33222 8.02216 2.02702 8.02802C1.89398 8.0259 1.76183 8.05015 1.63821 8.09936C1.51458 8.14857 1.40192 8.22176 1.30673 8.31473C1.21153 8.40769 1.13568 8.51858 1.08356 8.64101C1.03143 8.76343 1.00406 8.89497 1.00302 9.02802V10.028C1.00302 10.2932 1.10838 10.5476 1.29591 10.7351C1.48345 10.9227 1.7378 11.028 2.00302 11.028C2.32199 11.0214 2.63552 11.1113 2.90261 11.2858C3.16969 11.4602 3.37791 11.7113 3.50002 12.006V12.016V12.027C3.61743 12.3172 3.64809 12.6352 3.58826 12.9425C3.52844 13.2498 3.38072 13.5331 3.16302 13.758C3.06734 13.8505 2.99109 13.9612 2.93874 14.0836C2.88638 14.206 2.85899 14.3375 2.85815 14.4706C2.85731 14.6037 2.88305 14.7356 2.93385 14.8587C2.98466 14.9817 3.05951 15.0933 3.15402 15.187L3.86202 15.887C3.95529 15.9796 4.06589 16.0529 4.1875 16.1027C4.30911 16.1525 4.43935 16.1779 4.57076 16.1773C4.70218 16.1768 4.8322 16.1503 4.95338 16.0995C5.07457 16.0486 5.18454 15.9744 5.27702 15.881C5.4973 15.6525 5.78091 15.4952 6.09136 15.4293C6.40181 15.3633 6.72489 15.3918 7.01902 15.511C7.04034 15.5188 7.06107 15.5282 7.08102 15.539Z" fill="#E8931E"/>
</svg>
