<svg width="20" height="21" viewBox="0 0 20 21" fill="none" xmlns="http://www.w3.org/2000/svg">
<path fill-rule="evenodd" clip-rule="evenodd" d="M17.75 11.1712C17.65 11.0612 17.51 11.0013 17.37 11.0013H2.63C2.49 11.0013 2.35 11.0612 2.25 11.1712C2.16 11.2812 2.12 11.4213 2.13 11.5713L2.84 16.9512C3.07 18.6912 4.56 20.0013 6.31 20.0013H13.71C15.47 20.0013 16.97 18.6912 17.19 16.9412L17.87 11.5613C17.88 11.4213 17.84 11.2812 17.75 11.1712ZM9 16.0013C9 16.5513 8.55 17.0013 8 17.0013C7.45 17.0013 7 16.5513 7 16.0013V14.0013C7 13.4513 7.45 13.0013 8 13.0013C8.55 13.0013 9 13.4513 9 14.0013V16.0013ZM13 16.0013C13 16.5513 12.55 17.0013 12 17.0013C11.45 17.0013 11 16.5513 11 16.0013V14.0013C11 13.4513 11.45 13.0013 12 13.0013C12.55 13.0013 13 13.4513 13 14.0013V16.0013ZM20 7.25127C20 8.49427 18.993 9.50127 17.75 9.50127H2.25C1.007 9.50127 0 8.49427 0 7.25127C0 6.00827 1.007 5.00127 2.25 5.00127H4.43399L7.14301 0.486374C7.42701 0.0113743 8.04001 -0.141643 8.51501 0.143357C8.98901 0.427357 9.142 1.04118 8.858 1.51518L6.767 5.00029H13.235L11.144 1.51518C10.86 1.04118 11.013 0.427357 11.487 0.143357C11.961 -0.140643 12.575 0.0123743 12.859 0.486374L15.568 5.00127H17.752C18.993 5.00127 20 6.00827 20 7.25127Z" fill="#E8931E"/>
</svg>
