<svg width="19" height="19" viewBox="0 0 19 19" fill="none" xmlns="http://www.w3.org/2000/svg">
<path d="M19 6.50101C19 6.44701 18.991 6.39401 18.974 6.34201L17.886 3.077C17.273 1.237 15.557 0 13.617 0H5.383C3.443 0 1.72801 1.236 1.11401 3.077L0.026001 6.34201C0.00900098 6.39301 0 6.44701 0 6.50101C0.001 7.45301 0.384991 8.31501 1.00299 8.94601C1.00299 8.95001 1 8.95401 1 8.95901V15.501C1 17.431 2.57 19.001 4.5 19.001H8.02698V15.501C8.02698 14.674 8.69998 14.001 9.52698 14.001C10.354 14.001 11.027 14.674 11.027 15.501V19.001H14.5C16.43 19.001 18 17.431 18 15.501V8.95901C18 8.95502 17.998 8.95102 17.997 8.94702C18.615 8.31502 18.999 7.45301 19 6.50101ZM2.06201 3.39401C2.54001 1.96201 3.87402 1.00101 5.38202 1.00101H13.616C15.125 1.00101 16.459 1.96201 16.936 3.39401L17.997 6.578C17.954 7.921 16.853 9.00101 15.509 9.00101C14.395 9.00101 13.303 8.28502 12.97 7.33502C12.9 7.13502 12.711 7.00101 12.498 7.00101H12.496C12.283 7.00201 12.094 7.13802 12.025 7.33902C11.701 8.28602 10.615 9.00101 9.49799 9.00101C8.38099 9.00101 7.29501 8.28702 6.97101 7.33902C6.90201 7.13702 6.713 7.00201 6.5 7.00101C6.3 7.04301 6.097 7.13502 6.026 7.33502C5.693 8.28502 4.60198 9.00101 3.48798 9.00101C2.14298 9.00101 1.04202 7.921 0.999023 6.578L2.06201 3.39401ZM14.5 18.001H12.027V15.501C12.027 14.123 10.905 13.001 9.52698 13.001C8.14898 13.001 7.02698 14.123 7.02698 15.501V18.001H4.5C3.122 18.001 2 16.879 2 15.501V9.65201C2.454 9.86901 2.95499 10.001 3.48999 10.001C4.67799 10.001 5.81801 9.42001 6.49701 8.53601C7.17001 9.42001 8.309 10.001 9.5 10.001C10.691 10.001 11.83 9.42001 12.503 8.53601C13.182 9.42001 14.323 10.001 15.51 10.001C16.045 10.001 16.546 9.86901 17 9.65201V15.501C17 16.879 15.878 18.001 14.5 18.001Z" fill="#7680A6"/>
</svg>
