<svg width="18" height="18" viewBox="0 0 18 18" fill="none" xmlns="http://www.w3.org/2000/svg">
<path fill-rule="evenodd" clip-rule="evenodd" d="M5.38358 0C5.75808 0 6.06166 0.311529 6.06166 0.69582V0.921694C6.10586 0.910146 6.15023 0.899009 6.19476 0.888291C8.03988 0.44416 9.96012 0.44416 11.8052 0.88829C11.8498 0.899009 11.8941 0.910144 11.9383 0.921693V0.69582C11.9383 0.311529 12.2419 0 12.6164 0C12.9909 0 13.2945 0.311529 13.2945 0.69582V1.42901C15.2277 2.38732 16.6726 4.19919 17.1754 6.39896C17.6082 8.29235 17.6082 10.2628 17.1754 12.1562C16.5504 14.8905 14.4698 17.0255 11.8052 17.6669C9.96012 18.111 8.03988 18.111 6.19476 17.6669C3.53017 17.0255 1.44963 14.8906 0.824605 12.1562C0.391798 10.2628 0.391798 8.29235 0.824605 6.39896C1.32745 4.19918 2.77233 2.38732 4.70551 1.42901V0.69582C4.70551 0.311529 5.00909 0 5.38358 0ZM8.02743 6.88793C8.23927 6.67055 8.23927 6.31809 8.02743 6.1007C7.81558 5.88331 7.47211 5.88331 7.26027 6.1007L5.83564 7.56261L5.31512 7.02846C5.10327 6.81107 4.7598 6.81107 4.54796 7.02846C4.33611 7.24585 4.33611 7.5983 4.54796 7.81569L5.45206 8.74345C5.66391 8.96084 6.00737 8.96084 6.21922 8.74345L8.02743 6.88793ZM9.90411 7.3293C9.60451 7.3293 9.36164 7.57852 9.36164 7.88596C9.36164 8.19339 9.60451 8.44261 9.90411 8.44261H13.0685C13.3681 8.44261 13.6109 8.19339 13.6109 7.88596C13.6109 7.57852 13.3681 7.3293 13.0685 7.3293H9.90411ZM8.02743 11.5267C8.23927 11.3093 8.23927 10.9569 8.02743 10.7395C7.81558 10.5221 7.47211 10.5221 7.26027 10.7395L5.83564 12.2014L5.31512 11.6673C5.10327 11.4499 4.7598 11.4499 4.54796 11.6673C4.33611 11.8846 4.33611 12.2371 4.54796 12.4545L5.45206 13.3822C5.66391 13.5996 6.00737 13.5996 6.21922 13.3822L8.02743 11.5267ZM9.90411 11.9681C9.60451 11.9681 9.36164 12.2173 9.36164 12.5248C9.36164 12.8322 9.60451 13.0814 9.90411 13.0814H13.0685C13.3681 13.0814 13.6109 12.8322 13.6109 12.5248C13.6109 12.2173 13.3681 11.9681 13.0685 11.9681H9.90411Z" fill="#E8931E"/>
</svg>
