<svg width="20" height="20" viewBox="0 0 20 20" fill="none" xmlns="http://www.w3.org/2000/svg">
<path d="M6.07008 1V3.51375M13.9299 1V3.51375M1.83327 13.2485C1.38891 11.3097 1.38891 9.292 1.83327 7.35323C2.44858 4.66865 4.49673 2.57251 7.11985 1.94279C9.01424 1.48802 10.9858 1.48802 12.8801 1.94279C15.5033 2.57251 17.5514 4.66865 18.1667 7.35323C18.6111 9.292 18.6111 11.3097 18.1667 13.2485C17.5514 15.9331 15.5033 18.0292 12.8801 18.6589C10.9858 19.1137 9.01424 19.1137 7.11986 18.6589C4.49673 18.0292 2.44858 15.9331 1.83327 13.2485Z" stroke="#7680A6" stroke-width="1.5" stroke-linecap="round"/>
<path d="M5.98809 8.2877C5.6736 8.01813 5.20012 8.05455 4.93056 8.36905C4.66099 8.68354 4.69741 9.15702 5.01191 9.42659L5.98809 8.2877ZM6.5 9.71429L6.01191 10.2837C6.29277 10.5245 6.70723 10.5245 6.98809 10.2837L6.5 9.71429ZM8.98809 8.56944C9.30259 8.29988 9.33901 7.8264 9.06944 7.51191C8.79988 7.19741 8.3264 7.16099 8.01191 7.43056L8.98809 8.56944ZM5.98809 12.5734C5.6736 12.3038 5.20012 12.3403 4.93056 12.6548C4.66099 12.9693 4.69741 13.4427 5.01191 13.7123L5.98809 12.5734ZM6.5 14L6.01191 14.5694C6.29277 14.8102 6.70723 14.8102 6.98809 14.5694L6.5 14ZM8.98809 12.8552C9.30259 12.5856 9.33901 12.1121 9.06944 11.7976C8.79988 11.4831 8.3264 11.4467 8.01191 11.7163L8.98809 12.8552ZM11 8.53571C10.5858 8.53571 10.25 8.8715 10.25 9.28571C10.25 9.69993 10.5858 10.0357 11 10.0357V8.53571ZM14.5 10.0357C14.9142 10.0357 15.25 9.69993 15.25 9.28571C15.25 8.8715 14.9142 8.53571 14.5 8.53571V10.0357ZM11 12.8214C10.5858 12.8214 10.25 13.1572 10.25 13.5714C10.25 13.9856 10.5858 14.3214 11 14.3214V12.8214ZM14.5 14.3214C14.9142 14.3214 15.25 13.9856 15.25 13.5714C15.25 13.1572 14.9142 12.8214 14.5 12.8214V14.3214ZM5.01191 9.42659L6.01191 10.2837L6.98809 9.14484L5.98809 8.2877L5.01191 9.42659ZM6.98809 10.2837L8.98809 8.56944L8.01191 7.43056L6.01191 9.14484L6.98809 10.2837ZM5.01191 13.7123L6.01191 14.5694L6.98809 13.4306L5.98809 12.5734L5.01191 13.7123ZM6.98809 14.5694L8.98809 12.8552L8.01191 11.7163L6.01191 13.4306L6.98809 14.5694ZM11 10.0357H14.5V8.53571H11V10.0357ZM11 14.3214H14.5V12.8214H11V14.3214Z" fill="#7680A6"/>
</svg>
