<svg width="77" height="84" viewBox="0 0 77 84" fill="none" xmlns="http://www.w3.org/2000/svg">
<path fill-rule="evenodd" clip-rule="evenodd" d="M75.6 17.1818C75.9818 17.1818 75.9818 17.5636 75.9818 17.5636C76.3636 18.3273 76.3636 18.7091 76.3636 19.0909V72.5455C76.3636 79.0364 71.4 84 64.9091 84H11.4545C4.96364 84 0 79.0364 0 72.5455V19.0909V17.5636C0.381818 17.5636 0.381818 17.1818 0.381818 17.1818C0.763636 17.1818 0.763636 16.8 0.763636 16.8L12.2182 1.52727C12.9818 0.381818 14.1273 0 15.2727 0H61.0909C62.2364 0 63.3818 0.381818 63.7636 1.52727L75.2182 16.8C75.6 16.8 75.6 17.1818 75.6 17.1818ZM59.1816 7.63636H17.1816L11.4543 15.2727H64.9088L59.1816 7.63636ZM64.9091 76.3636H11.4546C9.1637 76.3636 7.63643 74.8364 7.63643 72.5455V22.9091H68.7273V72.5455C68.7273 74.8364 67.2001 76.3636 64.9091 76.3636ZM38.1816 53.4545C48.8725 53.4545 57.2725 45.0545 57.2725 34.3636C57.2725 32.0727 55.7453 30.5455 53.4544 30.5455C51.1635 30.5455 49.6362 32.0727 49.6362 34.3636C49.6362 40.8545 44.6725 45.8182 38.1816 45.8182C31.6907 45.8182 26.7271 40.8545 26.7271 34.3636C26.7271 32.0727 25.1998 30.5455 22.9089 30.5455C20.618 30.5455 19.0907 32.0727 19.0907 34.3636C19.0907 45.0545 27.4907 53.4545 38.1816 53.4545Z" fill="#D4D7E3"/>
</svg>
