<svg width="337" height="75" viewBox="0 0 337 75" fill="none" xmlns="http://www.w3.org/2000/svg">
<mask id="mask0_36_2084" style="mask-type:alpha" maskUnits="userSpaceOnUse" x="0" y="0" width="337" height="75">
<rect width="337" height="75" rx="12" fill="#D9D9D9"/>
</mask>
<g mask="url(#mask0_36_2084)">
<rect opacity="0.1" width="337" height="96" rx="12" fill="#7680A6"/>
<g style="mix-blend-mode:multiply">
<path style="mix-blend-mode:multiply" d="M282.586 25.4472L279.419 23.6206L207.488 65.1483L182.466 50.7054L241.206 16.7924L244.373 14.9659L241.206 13.1394L212.417 -3.48097L234.399 -16.1735L231.232 -18L185.937 8.15031L158.252 -7.83161L155.085 -6.0051L203.742 22.0859L177.849 37.0319L109.233 -2.5804L106.066 -0.753899L174.682 38.8627L177.849 40.6892L181.012 38.8627L206.904 23.9124L210.071 22.0859L206.904 20.2551L189.104 9.97682L209.255 -1.65447L238.039 14.9659L179.304 48.8788L108.7 8.11649L105.537 9.94299L176.137 50.7054L155.783 62.455L83.1668 20.53L80 22.3565L152.621 64.2815L131.671 76.3779L134.837 78.2044L179.304 52.5319L246.318 91.2225L249.48 89.396L210.654 66.979L282.586 25.4472Z" fill="url(#paint0_radial_36_2084)"/>
<path style="mix-blend-mode:multiply" d="M183.997 66.125L180.83 67.9515L151.775 84.7283L154.937 86.5548L183.997 69.778L246.284 105.742L249.451 103.915L187.163 67.9515L183.997 66.125Z" fill="url(#paint1_radial_36_2084)"/>
<path style="mix-blend-mode:multiply" d="M282.941 40.8879L279.774 39.0614L276.611 40.8879L225.474 70.4122L228.636 72.2429L279.774 42.7186L308.833 59.4954L312 57.6689L282.941 40.8879Z" fill="url(#paint2_radial_36_2084)"/>
</g>
<path style="mix-blend-mode:multiply" d="M143.809 53.9228L140.004 51.7242V56.1172L143.809 58.3157V53.9228Z" fill="url(#paint3_linear_36_2084)"/>
<path style="mix-blend-mode:multiply" d="M147.615 51.7242L143.809 53.9228V58.3157L147.615 56.1172V51.7242Z" fill="url(#paint4_linear_36_2084)"/>
<path d="M143.809 49.5342L140.004 47.3398V51.7328L143.809 53.9271V49.5342Z" fill="#CDD6F7"/>
<path d="M147.615 47.3398L143.809 49.5342V53.9271L147.615 51.7328V47.3398Z" fill="#BAC8F7"/>
<path d="M147.614 47.3398L143.809 45.1412L140.004 47.3398L143.809 49.5341L147.614 47.3398Z" fill="#FBFDFF"/>
<g style="mix-blend-mode:screen">
<path style="mix-blend-mode:screen" d="M162.337 44.9975C162.443 45.0702 162.532 45.1662 162.595 45.2784C162.659 45.3905 162.696 45.5157 162.704 45.6444C162.704 45.8854 162.54 45.9869 162.337 45.8685C162.229 45.7959 162.139 45.6994 162.074 45.5865C162.01 45.4735 161.972 45.3472 161.964 45.2174C161.964 44.9976 162.129 44.8918 162.337 44.9975ZM160.049 43.6784C160.157 43.7506 160.246 43.8464 160.31 43.9586C160.375 44.0707 160.413 44.1962 160.421 44.3253C160.421 44.5663 160.252 44.6678 160.049 44.5494C159.941 44.4768 159.852 44.3803 159.787 44.2673C159.723 44.1544 159.685 44.0281 159.677 43.8983C159.677 43.6699 159.846 43.5727 160.049 43.6911V43.6784ZM157.884 42.41C157.992 42.4826 158.082 42.5791 158.147 42.6921C158.211 42.805 158.249 42.9313 158.257 43.0611C158.257 43.3021 158.087 43.3994 157.884 43.281C157.777 43.2084 157.687 43.1118 157.622 42.9989C157.558 42.886 157.52 42.7597 157.512 42.6299C157.512 42.4185 157.677 42.3212 157.884 42.4607V42.41ZM164.315 46.1222C164.423 46.1948 164.513 46.2913 164.577 46.4043C164.642 46.5172 164.68 46.6435 164.687 46.7733C164.687 47.0143 164.518 47.1116 164.315 46.9932C164.207 46.9206 164.118 46.824 164.053 46.7111C163.989 46.5982 163.951 46.4719 163.943 46.3421C163.943 46.1307 164.112 46.0334 164.315 46.1518V46.1222ZM166.294 47.2638C166.409 47.3396 166.504 47.4424 166.57 47.5632C166.637 47.6841 166.672 47.8193 166.675 47.9572C166.675 48.1982 166.51 48.2996 166.302 48.177C166.195 48.1048 166.106 48.009 166.041 47.8968C165.977 47.7847 165.939 47.6592 165.93 47.5301C165.922 47.2765 166.091 47.175 166.294 47.2934V47.2638ZM168.273 48.4096C168.381 48.4822 168.47 48.5787 168.535 48.6916C168.599 48.8045 168.637 48.9308 168.645 49.0607C168.645 49.3017 168.48 49.3989 168.273 49.2805C168.166 49.2075 168.077 49.1107 168.013 48.9978C167.949 48.8849 167.912 48.7589 167.905 48.6294V48.6294C167.905 48.418 168.07 48.3208 168.273 48.4392V48.4096ZM170.256 49.5511C170.364 49.6237 170.453 49.7203 170.518 49.8332C170.582 49.9461 170.62 50.0724 170.628 50.2022C170.628 50.4432 170.459 50.5405 170.256 50.4221C170.148 50.3499 170.059 50.2541 169.994 50.1419C169.93 50.0298 169.892 49.9043 169.884 49.7752C169.884 49.5638 170.057 49.4666 170.256 49.5807V49.5511ZM172.234 50.6969C172.343 50.7674 172.434 50.8628 172.499 50.9753C172.563 51.0878 172.6 51.2142 172.606 51.3438C172.606 51.5848 172.442 51.6863 172.234 51.5679C172.126 51.4953 172.037 51.3988 171.972 51.2858C171.908 51.1729 171.87 51.0466 171.862 50.9168C171.862 50.7054 172.031 50.6081 172.234 50.7265V50.6969ZM174.213 51.8385C174.321 51.9111 174.411 52.0076 174.475 52.1205C174.54 52.2335 174.577 52.3598 174.585 52.4896C174.585 52.7306 174.42 52.8278 174.213 52.7095C174.106 52.6364 174.017 52.5397 173.953 52.4268C173.889 52.3139 173.853 52.1878 173.845 52.0583V52.0583C173.862 51.8469 174.01 51.7624 174.213 51.8681V51.8385ZM176.196 52.9801C176.303 53.0531 176.392 53.1498 176.456 53.2627C176.52 53.3756 176.557 53.5017 176.564 53.6312V53.6312C176.564 53.8722 176.399 53.9694 176.196 53.851C176.087 53.7806 175.996 53.6851 175.932 53.5726C175.867 53.4601 175.83 53.3338 175.824 53.2041V53.2041C175.824 52.9927 175.976 52.8913 176.196 53.0308V52.9801ZM178.175 54.1258C178.284 54.1963 178.374 54.2918 178.439 54.4043C178.504 54.5168 178.541 54.6431 178.547 54.7727V54.7727C178.547 55.0137 178.382 55.1152 178.175 54.9968C178.067 54.9242 177.977 54.8277 177.913 54.7148C177.848 54.6018 177.81 54.4755 177.803 54.3457C177.803 54.1343 177.972 54.0371 178.175 54.1554V54.1258ZM180.153 55.2674C180.261 55.34 180.351 55.4365 180.416 55.5495C180.48 55.6624 180.518 55.7887 180.526 55.9185C180.526 56.1595 180.361 56.2568 180.153 56.1384C180.046 56.0658 179.956 55.9693 179.891 55.8563C179.827 55.7434 179.789 55.6171 179.781 55.4873C179.781 55.2759 179.951 55.1786 180.153 55.297V55.2674ZM182.136 56.409C182.244 56.482 182.332 56.5788 182.396 56.6917C182.46 56.8046 182.497 56.9306 182.504 57.0601V57.0601C182.504 57.3011 182.339 57.3983 182.136 57.28C182.027 57.2095 181.937 57.114 181.872 57.0015C181.807 56.889 181.77 56.7627 181.764 56.6331V56.6331C181.764 56.4132 181.929 56.3202 182.136 56.4386V56.409ZM184.115 57.5548C184.223 57.6274 184.313 57.7239 184.377 57.8368C184.442 57.9498 184.479 58.0761 184.487 58.2059C184.487 58.4427 184.318 58.5441 184.115 58.4257C184.007 58.3531 183.917 58.2566 183.853 58.1437C183.788 58.0308 183.751 57.9045 183.743 57.7746C183.743 57.5632 183.912 57.466 184.115 57.5844V57.5548ZM186.094 58.6963C186.202 58.7689 186.291 58.8655 186.356 58.9784C186.421 59.0913 186.458 59.2176 186.466 59.3475C186.466 59.5885 186.301 59.6857 186.094 59.5673C185.986 59.4947 185.896 59.3982 185.832 59.2853C185.767 59.1723 185.73 59.046 185.722 58.9162C185.722 58.7048 185.891 58.6076 186.094 58.7259V58.6963ZM188.073 59.8421C188.182 59.9126 188.272 60.008 188.337 60.1206C188.402 60.2331 188.438 60.3594 188.445 60.489V60.489C188.445 60.73 188.28 60.8315 188.073 60.7131C187.965 60.64 187.877 60.5433 187.813 60.4304C187.749 60.3175 187.712 60.1915 187.705 60.062C187.705 59.8506 187.87 59.7533 188.073 59.8717V59.8421Z" fill="url(#paint5_linear_36_2084)"/>
</g>
<path style="mix-blend-mode:screen" d="M178.028 59.1122C180.2 57.8967 180.254 53.8602 178.148 50.0965C176.042 46.3328 172.573 44.2671 170.401 45.4826C168.229 46.6981 168.175 50.7346 170.281 54.4983C172.387 58.262 175.856 60.3277 178.028 59.1122Z" fill="url(#paint6_radial_36_2084)"/>
<path style="mix-blend-mode:color-dodge" d="M174.213 55.8255C172.556 54.87 171.211 52.5149 171.211 50.57C171.211 48.6252 172.556 47.8218 174.213 48.7816C175.87 49.7414 177.219 52.0921 177.219 54.037C177.219 55.9819 175.875 56.7852 174.213 55.8255Z" fill="url(#paint7_radial_36_2084)"/>
<path d="M174.213 51.868C174.321 51.9406 174.411 52.0372 174.475 52.1501C174.54 52.263 174.577 52.3893 174.585 52.5191C174.585 52.7601 174.42 52.8574 174.213 52.739C174.106 52.6659 174.017 52.5692 173.953 52.4563C173.889 52.3434 173.852 52.2174 173.845 52.0879V52.0879C173.862 51.8469 174.01 51.7623 174.213 51.868Z" fill="white"/>
<path style="mix-blend-mode:multiply" d="M216.882 60.1888L213.077 57.9902V62.3831L216.882 64.5817V60.1888Z" fill="url(#paint8_linear_36_2084)"/>
<path style="mix-blend-mode:multiply" d="M220.687 57.9902L216.882 60.1888V64.5817L220.687 62.3831V57.9902Z" fill="url(#paint9_linear_36_2084)"/>
<path d="M216.882 51.6777L213.077 49.4834V57.9986L216.882 60.193V51.6777Z" fill="#CDD6F7"/>
<path d="M220.687 49.4834L216.882 51.6777V60.193L220.687 57.9986V49.4834Z" fill="#BAC8F7"/>
<path d="M220.687 49.4835L216.882 47.2849L213.077 49.4835L216.882 51.6778L220.687 49.4835Z" fill="#FBFDFF"/>
<g style="mix-blend-mode:screen">
<path style="mix-blend-mode:screen" d="M230.847 47.695C230.84 47.8245 230.803 47.9505 230.739 48.0634C230.676 48.1763 230.587 48.2731 230.48 48.3461V48.3461C230.272 48.4645 230.108 48.3461 230.108 48.122C230.114 47.9924 230.151 47.8661 230.215 47.7536C230.28 47.6411 230.371 47.5456 230.48 47.4752C230.683 47.3568 230.847 47.454 230.847 47.695ZM233.135 46.3759C233.127 46.5057 233.089 46.632 233.025 46.7449C232.96 46.8579 232.871 46.9544 232.763 47.027C232.56 47.1454 232.395 47.027 232.395 46.8029C232.403 46.6742 232.44 46.5489 232.504 46.4368C232.568 46.3247 232.656 46.2286 232.763 46.156C232.966 46.0376 233.135 46.1349 233.135 46.3759ZM235.3 45.1075C235.292 45.2373 235.254 45.3636 235.19 45.4765C235.125 45.5895 235.035 45.686 234.927 45.7586C234.724 45.877 234.56 45.7586 234.56 45.5387C234.567 45.4093 234.604 45.2832 234.668 45.1703C234.731 45.0574 234.82 44.9607 234.927 44.8876C235.135 44.7861 235.3 44.8834 235.3 45.1244V45.1075ZM228.869 48.8197C228.861 48.9495 228.823 49.0758 228.759 49.1887C228.694 49.3017 228.605 49.3982 228.497 49.4708C228.294 49.5892 228.129 49.4708 228.129 49.2509C228.136 49.1215 228.173 48.9954 228.237 48.8825C228.301 48.7696 228.389 48.6729 228.497 48.5998C228.7 48.4983 228.869 48.5956 228.869 48.8366V48.8197ZM226.89 49.9655C226.882 50.0953 226.845 50.2216 226.78 50.3345C226.716 50.4475 226.626 50.544 226.518 50.6166C226.311 50.735 226.146 50.6166 226.146 50.3925C226.152 50.2628 226.189 50.1365 226.254 50.024C226.318 49.9115 226.409 49.8161 226.518 49.7456C226.712 49.6484 226.89 49.7414 226.89 49.9824V49.9655ZM224.911 51.107C224.903 51.2369 224.866 51.3632 224.801 51.4761C224.737 51.589 224.647 51.6855 224.539 51.7581C224.332 51.8765 224.167 51.7793 224.167 51.5383C224.175 51.4084 224.213 51.2822 224.277 51.1692C224.342 51.0563 224.431 50.9598 224.539 50.8872C224.742 50.7857 224.911 50.8829 224.911 51.1239V51.107ZM222.928 52.2528C222.923 52.3825 222.886 52.509 222.821 52.6216C222.756 52.7341 222.665 52.8295 222.556 52.8997V52.8997C222.353 53.0181 222.188 52.9208 222.188 52.6798C222.196 52.5504 222.233 52.4243 222.296 52.3114C222.36 52.1985 222.449 52.1018 222.556 52.0287C222.763 51.9315 222.928 52.0287 222.928 52.2697V52.2528ZM220.95 53.3944C220.942 53.5242 220.904 53.6505 220.84 53.7634C220.775 53.8764 220.685 53.9729 220.578 54.0455C220.375 54.1639 220.205 54.0455 220.205 53.8214C220.214 53.6923 220.252 53.5669 220.316 53.4547C220.381 53.3426 220.47 53.2467 220.578 53.1745C220.793 53.0731 220.95 53.1703 220.95 53.4113V53.3944ZM218.971 54.5359C218.963 54.6658 218.926 54.7921 218.861 54.905C218.796 55.0179 218.707 55.1145 218.599 55.1871C218.392 55.3055 218.227 55.2082 218.227 54.9672C218.235 54.8374 218.272 54.7111 218.337 54.5981C218.401 54.4852 218.491 54.3887 218.599 54.3161C218.802 54.2146 218.971 54.2992 218.971 54.5529V54.5359ZM216.988 55.6987C216.98 55.8274 216.943 55.9526 216.879 56.0647C216.815 56.1769 216.727 56.2729 216.62 56.3455V56.3455C216.413 56.4639 216.248 56.3455 216.248 56.1257C216.256 55.9959 216.293 55.8696 216.358 55.7566C216.422 55.6437 216.512 55.5472 216.62 55.4746C216.823 55.3562 216.988 55.4577 216.988 55.6987ZM215.009 56.8402C215.001 56.9701 214.964 57.0964 214.899 57.2093C214.835 57.3222 214.745 57.4187 214.637 57.4913C214.434 57.6097 214.265 57.4913 214.265 57.2673C214.274 57.1382 214.311 57.0127 214.376 56.9005C214.44 56.7884 214.53 56.6925 214.637 56.6204C214.84 56.502 215.009 56.5992 215.009 56.836V56.8402ZM213.031 57.9818C213.023 58.1116 212.985 58.2379 212.921 58.3508C212.856 58.4638 212.766 58.5603 212.658 58.6329C212.451 58.7513 212.286 58.654 212.286 58.413C212.294 58.2832 212.332 58.1569 212.396 58.044C212.461 57.9311 212.551 57.8345 212.658 57.7619C212.866 57.6435 213.031 57.7408 213.031 57.9818V57.9818ZM211.069 59.1276C211.06 59.2567 211.022 59.3821 210.958 59.4943C210.893 59.6064 210.804 59.7023 210.697 59.7745C210.489 59.8971 210.325 59.7956 210.325 59.5546C210.331 59.425 210.368 59.2987 210.432 59.1861C210.497 59.0736 210.588 58.9782 210.697 58.9077C210.883 58.7851 211.069 58.8866 211.069 59.1276ZM209.086 60.2691C209.078 60.399 209.04 60.5253 208.976 60.6382C208.911 60.7511 208.822 60.8477 208.714 60.9203C208.511 61.0387 208.346 60.9414 208.346 60.7004C208.353 60.5709 208.39 60.4449 208.454 60.332C208.518 60.2191 208.607 60.1224 208.714 60.0493C208.9 59.9309 209.069 60.0281 209.069 60.2691H209.086ZM207.107 61.4149C207.101 61.5445 207.064 61.6707 206.999 61.7831C206.934 61.8956 206.844 61.9911 206.735 62.0618V62.0618C206.532 62.1802 206.363 62.0618 206.363 61.842C206.371 61.7121 206.408 61.5858 206.473 61.4729C206.537 61.36 206.627 61.2635 206.735 61.1909C206.921 61.064 207.09 61.1739 207.09 61.4149H207.107ZM205.128 62.5565C205.121 62.6863 205.083 62.8126 205.018 62.9256C204.954 63.0385 204.864 63.135 204.756 63.2076C204.549 63.326 204.384 63.2076 204.384 62.9835C204.386 62.8558 204.418 62.7303 204.478 62.6172C204.537 62.5041 204.623 62.4066 204.727 62.3324C204.942 62.2183 205.111 62.3324 205.111 62.5565H205.128Z" fill="url(#paint10_linear_36_2084)"/>
</g>
<path style="mix-blend-mode:screen" d="M218.599 61.1908C221.622 59.4446 224.074 55.1532 224.074 51.6059C224.074 48.0586 221.622 46.5999 218.599 48.3461C215.576 50.0922 213.102 54.3837 213.102 57.931C213.102 61.4783 215.572 62.9412 218.599 61.1908Z" fill="url(#paint11_radial_36_2084)"/>
<path style="mix-blend-mode:color-dodge" d="M218.599 58.2904C220.256 57.3349 221.6 54.9799 221.6 53.035C221.6 51.0901 220.256 50.2868 218.599 51.2466C216.941 52.2063 215.597 54.5571 215.597 56.502C215.597 58.4469 216.941 59.2502 218.599 58.2904Z" fill="url(#paint12_radial_36_2084)"/>
<path d="M218.599 54.3329C218.491 54.4055 218.401 54.5021 218.336 54.615C218.272 54.7279 218.234 54.8542 218.227 54.9841C218.227 55.225 218.391 55.3223 218.599 55.2039C218.706 55.1313 218.796 55.0348 218.861 54.9219C218.925 54.8089 218.963 54.6826 218.971 54.5528C218.971 54.2991 218.802 54.2146 218.599 54.3329Z" fill="white"/>
</g>
<defs>
<radialGradient id="paint0_radial_36_2084" cx="0" cy="0" r="1" gradientUnits="userSpaceOnUse" gradientTransform="translate(202.617 44.5113) rotate(29.8865) scale(110.303 95.3059)">
<stop stop-color="#EDEEF2"/>
<stop offset="0.53" stop-color="#FAFBFC"/>
<stop offset="1" stop-color="white"/>
</radialGradient>
<radialGradient id="paint1_radial_36_2084" cx="0" cy="0" r="1" gradientUnits="userSpaceOnUse" gradientTransform="translate(199.138 42.5115) rotate(29.8865) scale(148.414 128.235)">
<stop stop-color="#EDEEF2"/>
<stop offset="0.53" stop-color="#FAFBFC"/>
<stop offset="1" stop-color="white"/>
</radialGradient>
<radialGradient id="paint2_radial_36_2084" cx="0" cy="0" r="1" gradientUnits="userSpaceOnUse" gradientTransform="translate(205.52 46.1793) rotate(29.8865) scale(107.825 93.1651)">
<stop stop-color="#EDEEF2"/>
<stop offset="0.53" stop-color="#FAFBFC"/>
<stop offset="1" stop-color="white"/>
</radialGradient>
<linearGradient id="paint3_linear_36_2084" x1="142.832" y1="53.2886" x2="141.019" y2="56.6837" gradientUnits="userSpaceOnUse">
<stop stop-color="#B5C6FC"/>
<stop offset="0.03" stop-color="#B9C9FC"/>
<stop offset="0.29" stop-color="#D8E1FD"/>
<stop offset="0.54" stop-color="#EDF1FE"/>
<stop offset="0.78" stop-color="#FBFCFF"/>
<stop offset="1" stop-color="white"/>
</linearGradient>
<linearGradient id="paint4_linear_36_2084" x1="144.769" y1="53.4112" x2="146.676" y2="56.671" gradientUnits="userSpaceOnUse">
<stop stop-color="#B5C6FC"/>
<stop offset="0.03" stop-color="#B9C9FC"/>
<stop offset="0.29" stop-color="#D8E1FD"/>
<stop offset="0.54" stop-color="#EDF1FE"/>
<stop offset="0.78" stop-color="#FBFCFF"/>
<stop offset="1" stop-color="white"/>
</linearGradient>
<linearGradient id="paint5_linear_36_2084" x1="153.918" y1="36.8645" x2="185.17" y2="36.8645" gradientUnits="userSpaceOnUse">
<stop/>
<stop offset="0.56" stop-color="#8AFFDE"/>
<stop offset="1" stop-color="#0B080F"/>
</linearGradient>
<radialGradient id="paint6_radial_36_2084" cx="0" cy="0" r="1" gradientUnits="userSpaceOnUse" gradientTransform="translate(171.398 45.9716) rotate(90.159) scale(6.41273 5.47687)">
<stop stop-color="#0056FF"/>
<stop offset="0.03" stop-color="#004EE8"/>
<stop offset="0.1" stop-color="#003EB8"/>
<stop offset="0.17" stop-color="#002F8C"/>
<stop offset="0.25" stop-color="#002366"/>
<stop offset="0.33" stop-color="#001847"/>
<stop offset="0.42" stop-color="#000F2D"/>
<stop offset="0.52" stop-color="#000819"/>
<stop offset="0.63" stop-color="#00040B"/>
<stop offset="0.76" stop-color="#000102"/>
<stop offset="1"/>
</radialGradient>
<radialGradient id="paint7_radial_36_2084" cx="0" cy="0" r="1" gradientUnits="userSpaceOnUse" gradientTransform="translate(176.305 54.1482) rotate(90) scale(3.52194 2.99365)">
<stop stop-color="#0029FF"/>
<stop offset="0.03" stop-color="#0025E8"/>
<stop offset="0.1" stop-color="#001EB8"/>
<stop offset="0.17" stop-color="#00178C"/>
<stop offset="0.25" stop-color="#001066"/>
<stop offset="0.33" stop-color="#000B47"/>
<stop offset="0.42" stop-color="#00072D"/>
<stop offset="0.52" stop-color="#000419"/>
<stop offset="0.63" stop-color="#00020B"/>
<stop offset="0.76" stop-color="#000002"/>
<stop offset="1"/>
</radialGradient>
<linearGradient id="paint8_linear_36_2084" x1="215.905" y1="59.5546" x2="214.092" y2="62.9539" gradientUnits="userSpaceOnUse">
<stop stop-color="#B5C6FC"/>
<stop offset="0.03" stop-color="#B9C9FC"/>
<stop offset="0.29" stop-color="#D8E1FD"/>
<stop offset="0.54" stop-color="#EDF1FE"/>
<stop offset="0.78" stop-color="#FBFCFF"/>
<stop offset="1" stop-color="white"/>
</linearGradient>
<linearGradient id="paint9_linear_36_2084" x1="217.846" y1="59.6814" x2="219.753" y2="62.937" gradientUnits="userSpaceOnUse">
<stop stop-color="#B5C6FC"/>
<stop offset="0.03" stop-color="#B9C9FC"/>
<stop offset="0.29" stop-color="#D8E1FD"/>
<stop offset="0.54" stop-color="#EDF1FE"/>
<stop offset="0.78" stop-color="#FBFCFF"/>
<stop offset="1" stop-color="white"/>
</linearGradient>
<linearGradient id="paint10_linear_36_2084" x1="242.141" y1="37.6678" x2="210.889" y2="37.6678" gradientUnits="userSpaceOnUse">
<stop/>
<stop offset="0.56" stop-color="#8AFFDE"/>
<stop offset="1" stop-color="#0B080F"/>
</linearGradient>
<radialGradient id="paint11_radial_36_2084" cx="0" cy="0" r="1" gradientUnits="userSpaceOnUse" gradientTransform="translate(214.371 58.5088) rotate(90) scale(6.42237 5.45901)">
<stop stop-color="#0056FF"/>
<stop offset="0.03" stop-color="#004EE8"/>
<stop offset="0.1" stop-color="#003EB8"/>
<stop offset="0.17" stop-color="#002F8C"/>
<stop offset="0.25" stop-color="#002366"/>
<stop offset="0.33" stop-color="#001847"/>
<stop offset="0.42" stop-color="#000F2D"/>
<stop offset="0.52" stop-color="#000819"/>
<stop offset="0.63" stop-color="#00040B"/>
<stop offset="0.76" stop-color="#000102"/>
<stop offset="1"/>
</radialGradient>
<radialGradient id="paint12_radial_36_2084" cx="0" cy="0" r="1" gradientUnits="userSpaceOnUse" gradientTransform="translate(214.367 58.5109) rotate(90) scale(3.52194 2.99365)">
<stop stop-color="#0029FF"/>
<stop offset="0.03" stop-color="#0025E8"/>
<stop offset="0.1" stop-color="#001EB8"/>
<stop offset="0.17" stop-color="#00178C"/>
<stop offset="0.25" stop-color="#001066"/>
<stop offset="0.33" stop-color="#000B47"/>
<stop offset="0.42" stop-color="#00072D"/>
<stop offset="0.52" stop-color="#000419"/>
<stop offset="0.63" stop-color="#00020B"/>
<stop offset="0.76" stop-color="#000002"/>
<stop offset="1"/>
</radialGradient>
</defs>
</svg>
