<svg width="22" height="25" viewBox="0 0 22 25" fill="none" xmlns="http://www.w3.org/2000/svg">
<path d="M19.0667 0H2.93333C2.15536 0 1.40926 0.30102 0.859154 0.836838C0.309047 1.37266 0 2.09938 0 2.85714L0 22.1429C0 22.9006 0.309047 23.6273 0.859154 24.1632C1.40926 24.699 2.15536 25 2.93333 25H19.0667C19.8446 25 20.5907 24.699 21.1408 24.1632C21.691 23.6273 22 22.9006 22 22.1429V2.85714C22 2.09938 21.691 1.37266 21.1408 0.836838C20.5907 0.30102 19.8446 0 19.0667 0V0ZM9.16667 2.32143H12.8333C13.1251 2.32143 13.4049 2.43431 13.6112 2.63524C13.8174 2.83617 13.9333 3.1087 13.9333 3.39286C13.9333 3.67702 13.8174 3.94954 13.6112 4.15047C13.4049 4.3514 13.1251 4.46429 12.8333 4.46429H9.16667C8.87493 4.46429 8.59514 4.3514 8.38885 4.15047C8.18256 3.94954 8.06667 3.67702 8.06667 3.39286C8.06667 3.1087 8.18256 2.83617 8.38885 2.63524C8.59514 2.43431 8.87493 2.32143 9.16667 2.32143ZM4.76667 20.8929C4.40407 20.8929 4.04961 20.7881 3.74812 20.5919C3.44663 20.3957 3.21165 20.1168 3.07289 19.7905C2.93413 19.4642 2.89782 19.1052 2.96856 18.7588C3.0393 18.4124 3.21391 18.0942 3.4703 17.8445C3.7267 17.5947 4.05337 17.4246 4.409 17.3557C4.76463 17.2868 5.13326 17.3222 5.46825 17.4574C5.80325 17.5925 6.08958 17.8214 6.29103 18.1151C6.49248 18.4087 6.6 18.754 6.6 19.1071C6.6 19.5807 6.40685 20.0349 6.06303 20.3698C5.71921 20.7047 5.2529 20.8929 4.76667 20.8929ZM9.53333 13.0357C9.53333 13.1304 9.4947 13.2213 9.42594 13.2883C9.35718 13.3552 9.26391 13.3929 9.16667 13.3929H3.66667V7.63571C3.66667 7.45764 3.73929 7.28686 3.86857 7.16094C3.99784 7.03503 4.17318 6.96429 4.356 6.96429H9.16667C9.26391 6.96429 9.35718 7.00191 9.42594 7.06889C9.4947 7.13587 9.53333 7.22671 9.53333 7.32143V13.0357ZM12.4667 13.0357V7.32143C12.4667 7.22671 12.5053 7.13587 12.5741 7.06889C12.6428 7.00191 12.7361 6.96429 12.8333 6.96429H17.644C17.8268 6.96429 18.0022 7.03503 18.1314 7.16094C18.2607 7.28686 18.3333 7.45764 18.3333 7.63571V13.3929H12.8333C12.7361 13.3929 12.6428 13.3552 12.5741 13.2883C12.5053 13.2213 12.4667 13.1304 12.4667 13.0357ZM17.2333 20.8929C16.8707 20.8929 16.5163 20.7881 16.2148 20.5919C15.9133 20.3957 15.6783 20.1168 15.5396 19.7905C15.4008 19.4642 15.3645 19.1052 15.4352 18.7588C15.506 18.4124 15.6806 18.0942 15.937 17.8445C16.1934 17.5947 16.52 17.4246 16.8757 17.3557C17.2313 17.2868 17.5999 17.3222 17.9349 17.4574C18.2699 17.5925 18.5562 17.8214 18.7577 18.1151C18.9591 18.4087 19.0667 18.754 19.0667 19.1071C19.0667 19.5807 18.8735 20.0349 18.5297 20.3698C18.1859 20.7047 17.7196 20.8929 17.2333 20.8929Z" fill="#E8931E"/>
</svg>
