<svg width="24" height="18" viewBox="0 0 24 18" fill="none" xmlns="http://www.w3.org/2000/svg">
<path fill-rule="evenodd" clip-rule="evenodd" d="M11.3348 17.5128C10.8122 18.1043 9.90261 18.1658 9.30314 17.6501L0.493726 10.0711C0.180039 9.80128 3.63815e-08 9.41068 0 9C-3.63815e-08 8.58932 0.180038 8.19872 0.493726 7.92885L9.30314 0.349922C9.9026 -0.165813 10.8122 -0.104331 11.3348 0.487249C11.8575 1.07883 11.7952 1.97648 11.1957 2.49222L5.28309 7.57895L22.56 7.57895C23.3553 7.57895 24 8.21517 24 9C24 9.78482 23.3553 10.421 22.56 10.421L5.28309 10.4211L11.1957 15.5078C11.7952 16.0235 11.8575 16.9212 11.3348 17.5128Z" fill="#E8931E"/>
</svg>
