<svg width="18" height="19" viewBox="0 0 18 19" fill="none" xmlns="http://www.w3.org/2000/svg">
<path d="M2.87495 11.9715L3.36338 11.8646L2.87495 11.9715ZM2.87495 7.34314L3.36338 7.45008L2.87495 7.34314ZM15.125 7.34314L14.6366 7.45008L15.125 7.34314ZM15.125 11.9715L14.6366 11.8645L15.125 11.9715ZM11.1601 16.2192L11.282 16.7041L11.1601 16.2192ZM6.83989 16.2192L6.96175 15.7343L6.83989 16.2192ZM6.83989 3.09541L6.96175 3.58033L6.83989 3.09541ZM11.1601 3.09541L11.282 2.61049L11.1601 3.09541ZM6.55256 2.35522C6.55256 2.07908 6.3287 1.85522 6.05256 1.85522C5.77642 1.85522 5.55256 2.07908 5.55256 2.35522H6.55256ZM5.55256 4.32876C5.55256 4.6049 5.77642 4.82876 6.05256 4.82876C6.3287 4.82876 6.55256 4.6049 6.55256 4.32876H5.55256ZM12.4474 2.35522C12.4474 2.07908 12.2236 1.85522 11.9474 1.85522C11.6713 1.85522 11.4474 2.07908 11.4474 2.35522H12.4474ZM11.4474 4.32876C11.4474 4.6049 11.6713 4.82876 11.9474 4.82876C12.2236 4.82876 12.4474 4.6049 12.4474 4.32876H11.4474ZM3.36338 11.8646C3.04554 10.4129 3.04554 8.90175 3.36338 7.45008L2.38653 7.23619C2.03782 8.82878 2.03782 10.4858 2.38653 12.0784L3.36338 11.8646ZM14.6366 7.45008C14.9545 8.90175 14.9545 10.4129 14.6366 11.8645L15.6135 12.0784C15.9622 10.4858 15.9622 8.82878 15.6135 7.2362L14.6366 7.45008ZM11.0382 15.7343C9.69746 16.0712 8.30255 16.0712 6.96175 15.7343L6.71803 16.7041C8.21882 17.0813 9.78118 17.0813 11.282 16.7041L11.0382 15.7343ZM6.96175 3.58033C8.30255 3.24339 9.69746 3.24339 11.0383 3.58033L11.282 2.61049C9.78118 2.23334 8.21882 2.23334 6.71803 2.61049L6.96175 3.58033ZM6.96175 15.7343C5.19271 15.2897 3.78753 13.8017 3.36338 11.8646L2.38653 12.0784C2.88533 14.3566 4.55239 16.1599 6.71803 16.7041L6.96175 15.7343ZM11.282 16.7041C13.4476 16.1599 15.1147 14.3566 15.6135 12.0784L14.6366 11.8645C14.2125 13.8017 12.8073 15.2897 11.0382 15.7343L11.282 16.7041ZM11.0383 3.58033C12.8073 4.02489 14.2125 5.51291 14.6366 7.45008L15.6135 7.2362C15.1147 4.95805 13.4476 3.15471 11.282 2.61049L11.0383 3.58033ZM6.71803 2.61049C4.55238 3.15471 2.88533 4.95805 2.38653 7.23619L3.36338 7.45008C3.78753 5.5129 5.19271 4.02489 6.96175 3.58033L6.71803 2.61049ZM3.10512 6.99965H14.8949V5.99965H3.10512V6.99965ZM5.55256 2.35522V4.32876H6.55256V2.35522H5.55256ZM11.4474 2.35522V4.32876H12.4474V2.35522H11.4474Z" fill="#7680A6"/>
<path d="M10.0814 10.9318C10.3852 10.7057 10.5742 10.3665 10.5742 9.90725C10.5742 8.95335 9.87216 8.45874 9.04191 8.45874C8.21166 8.45874 7.50291 8.95335 7.50291 9.90725C7.50291 10.3665 7.69866 10.7057 7.99566 10.9318C7.58391 11.1932 7.34766 11.6243 7.34766 12.1259C7.34766 13.0374 7.98891 13.6027 9.04191 13.6027C10.0882 13.6027 10.7362 13.0374 10.7362 12.1259C10.7362 11.6243 10.4999 11.1932 10.0814 10.9318ZM9.04191 9.37731C9.39291 9.37731 9.64941 9.58928 9.64941 9.95671C9.64941 10.3171 9.39291 10.5432 9.04191 10.5432C8.69091 10.5432 8.43441 10.3171 8.43441 9.95671C8.43441 9.58928 8.69091 9.37731 9.04191 9.37731ZM9.04191 12.6841C8.59641 12.6841 8.27241 12.4439 8.27241 11.9987C8.27241 11.5607 8.59641 11.3204 9.04191 11.3204C9.48741 11.3204 9.81141 11.5607 9.81141 11.9987C9.81141 12.4439 9.48741 12.6841 9.04191 12.6841Z" fill="#7680A6"/>
</svg>
