<svg width="10" height="5" viewBox="0 0 10 5" fill="none" xmlns="http://www.w3.org/2000/svg">
<path d="M5.50739 3.40561C5.44099 3.47094 5.362 3.5228 5.27496 3.55819C5.18792 3.59358 5.09457 3.6118 5.00028 3.6118C4.90599 3.6118 4.81263 3.59358 4.7256 3.55819C4.63856 3.5228 4.55956 3.47094 4.49316 3.40561L1.22192 0.206185C1.15553 0.140852 1.07653 0.0889959 0.989492 0.053608C0.902455 0.01822 0.809099 1.06828e-06 0.714811 1.06716e-06C0.620522 1.06603e-06 0.527166 0.01822 0.440129 0.053608C0.353091 0.0889959 0.274095 0.140852 0.207697 0.206185C0.0746683 0.336785 5.35016e-08 0.513452 5.13056e-08 0.6976C4.91096e-08 0.881749 0.0746682 1.05842 0.207697 1.18902L3.48608 4.38844C3.88784 4.78004 4.43245 5 5.00028 5C5.5681 5 6.11271 4.78004 6.51448 4.38844L9.79286 1.18902C9.92481 1.05918 9.9992 0.883948 9.99999 0.701086C10.0005 0.60935 9.98251 0.518412 9.94697 0.433486C9.91143 0.34856 9.85905 0.271317 9.79286 0.206185C9.72646 0.140853 9.64746 0.088996 9.56043 0.0536081C9.47339 0.0182202 9.38003 1.17049e-06 9.28574 1.16936e-06C9.19145 1.16824e-06 9.0981 0.0182201 9.01106 0.0536081C8.92402 0.088996 8.84503 0.140853 8.77863 0.206185L5.50739 3.40561Z" fill="#E8931E"/>
</svg>
