<svg width="12" height="6" viewBox="0 0 12 6" fill="none" xmlns="http://www.w3.org/2000/svg">
<path d="M6.53248 4.05007C6.46276 4.12037 6.37981 4.17617 6.28842 4.21424C6.19702 4.25232 6.09899 4.27192 5.99998 4.27192C5.90098 4.27192 5.80295 4.25232 5.71155 4.21424C5.62016 4.17617 5.53721 4.12037 5.46748 4.05007L2.03248 0.607573C1.96276 0.537277 1.87981 0.481481 1.78842 0.443405C1.69702 0.405328 1.59899 0.385725 1.49998 0.385725C1.40097 0.385725 1.30295 0.405328 1.21155 0.443405C1.12016 0.481481 1.03721 0.537277 0.967484 0.607573C0.827796 0.748096 0.749389 0.938184 0.749389 1.13632C0.749389 1.33446 0.827796 1.52455 0.967484 1.66507L4.40998 5.10757C4.83186 5.52893 5.40373 5.76559 5.99998 5.76559C6.59624 5.76559 7.16811 5.52893 7.58998 5.10757L11.0325 1.66507C11.171 1.52538 11.2492 1.33683 11.25 1.14007C11.2506 1.04137 11.2316 0.943521 11.1943 0.852143C11.157 0.760765 11.102 0.677653 11.0325 0.607573C10.9628 0.537277 10.8798 0.481481 10.7884 0.443404C10.697 0.405328 10.599 0.385725 10.5 0.385725C10.401 0.385725 10.3029 0.405328 10.2116 0.443404C10.1202 0.481481 10.0372 0.537277 9.96749 0.607573L6.53248 4.05007Z" fill="#7680A6"/>
</svg>
