<svg width="16" height="20" viewBox="0 0 16 20" fill="none" xmlns="http://www.w3.org/2000/svg">
<path d="M2.66684 5.26289C2.66684 2.36093 5.05953 0 8.00052 0C10.9415 0 13.3342 2.36093 13.3342 5.26289C13.3342 8.16484 10.9415 10.5258 8.00052 10.5258C5.05953 10.5258 2.66684 8.16484 2.66684 5.26289ZM12.3923 11.6531C11.796 11.5037 11.1474 11.5879 10.6108 11.8826C8.99154 12.771 7.0095 12.771 5.39019 11.8826C4.85469 11.5889 4.20507 11.5058 3.60876 11.6531C1.48383 12.1826 0 14.0856 0 16.2803V17.3444C0 18.0159 0.181325 18.6727 0.525881 19.2453C0.806432 19.7105 1.33237 20 1.89667 20H14.1033C14.6676 20 15.1935 19.7116 15.4741 19.2442C15.8186 18.6727 16 18.0159 16 17.3444V16.2803C16.0011 14.0856 14.5172 12.1826 12.3923 11.6531Z" fill="white"/>
</svg>
